<?xml version="1.0" standalone="no"?>
<!DOCTYPE svg PUBLIC "-//W3C//DTD SVG 1.1//EN" "http://www.w3.org/Graphics/SVG/1.1/DTD/svg11.dtd" >
<svg xmlns="http://www.w3.org/2000/svg">
<metadata>
This is a custom SVG webfont generated by Font Squirrel.
Copyright   :  Hans Reichel 1995 Published by FontShop International FontFont release 16 Update V11 with hand edited bitmaps
</metadata>
<defs>
<font id="DaxCondensedBold" horiz-adv-x="935" >
<font-face units-per-em="2048" ascent="1608" descent="-440" />
<missing-glyph horiz-adv-x="495" />
<glyph unicode=" "  horiz-adv-x="495" />
<glyph unicode="&#x09;" horiz-adv-x="495" />
<glyph unicode="&#xa0;" horiz-adv-x="495" />
<glyph unicode="!" horiz-adv-x="587" d="M145 151.5q0 69.5 49.5 118.5t119 49t118.5 -49t49 -118q0 -72 -49 -121t-118.5 -49t-119 50t-49.5 119.5zM147 1409h330l-57 -915h-213z" />
<glyph unicode="&#x22;" horiz-adv-x="806" d="M123 1362q39 66 116.5 65.5t116.5 -65.5l-53 -567h-127zM467 1362q41 66 117 65q78 0 116 -65l-53 -567h-129z" />
<glyph unicode="#" d="M31 449v145h174l39 256h-154v145h174l62 414h145l-61 -414h186l59 414h148l-62 -412h156v-145h-176l-39 -258h156v-145h-176l-64 -449h-147l65 449h-184l-68 -449h-145l65 449h-153zM350 594h187l38 258h-184z" />
<glyph unicode="$" d="M106 61l64 220q74 -63 197 -64q72 0 114.5 41t42.5 104q0 76 -37.5 132.5t-142.5 144.5q-119 100 -172 193.5t-53 207.5q0 154 82 256.5t215 124.5l-17 244h156l-20 -238q154 -8 237 -79l-51 -191q-66 53 -176 53q-66 0 -107 -40t-41 -109.5t36 -122.5t138 -137 q131 -113 189.5 -203t58.5 -215q0 -160 -86 -267.5t-233 -129.5l20 -250h-162l21 244q-181 7 -273 81z" />
<glyph unicode="%" horiz-adv-x="1499" d="M88 946.5q0 483.5 256 483.5t256 -483.5t-256 -483.5t-256 483.5zM250 946q0 -338 94 -338t94 338q0 365 -94 365t-94 -365zM483 18l404 1409l125 -36l-404 -1409zM897 465q0 125 17.5 223t78 178t160.5 80q76 0 129 -44t80 -118.5t38 -151.5t11 -167q0 -92 -11 -170 t-38 -153.5t-80 -118.5t-129 -43q-256 0 -256 485zM1061 465q0 -340 92 -340q33 0 53.5 30.5t28.5 91t10 104.5t2 114q6 362 -94 362q-92 0 -92 -362z" />
<glyph unicode="&#x26;" horiz-adv-x="1132" d="M92 391q0 133 69.5 233.5t184.5 155.5v4q-180 94 -180 295q0 147 96 249t264 102q190 0 293 -82l-76 -179q-70 45 -157 45q-74 0 -116 -40.5t-42 -120.5q0 -72 51 -119t127 -47q188 0 449 160l80 -185q-78 -47 -191 -71l2 -730q-113 -82 -379 -81q-209 0 -342 109 t-133 302zM381 422q0 -115 51 -182.5t148 -67.5q59 0 98 18v539q-164 -41 -230.5 -110.5t-66.5 -196.5z" />
<glyph unicode="'" horiz-adv-x="499" d="M123 1362q47 66 135 65.5t137 -65.5l-61 -567h-150z" />
<glyph unicode="(" horiz-adv-x="675" d="M94 586q0 270 93.5 505.5t330.5 544.5l125 -80q-276 -455 -276 -970q0 -518 276 -973l-125 -80q-238 309 -331 545t-93 508z" />
<glyph unicode=")" horiz-adv-x="675" d="M33 -387q276 455 276 973q0 516 -276 970l125 80q238 -309 331 -544.5t93 -505.5q0 -272 -93.5 -508t-330.5 -545z" />
<glyph unicode="*" horiz-adv-x="843" d="M98 1370q0 41 29 69.5t70 28.5t68.5 -28.5t27.5 -69.5q0 -39 -28.5 -67.5t-69.5 -28.5q-39 0 -68 28.5t-29 67.5zM186 1094q0 41 29 69.5t70 28.5t68.5 -28.5t27.5 -69.5t-28.5 -69t-67.5 -28q-41 0 -70 29t-29 68zM334 1542q0 41 28.5 69.5t69.5 28.5q39 0 67.5 -28.5 t28.5 -69.5t-28.5 -68.5t-69.5 -27.5t-68.5 28.5t-27.5 67.5zM356 1294.5q0 30.5 21.5 52t54.5 21.5q29 0 51.5 -21.5t22.5 -52t-22.5 -52t-53.5 -21.5t-52.5 21.5t-21.5 52zM479 1094q0 41 29 69.5t70 28.5q39 0 67.5 -28.5t28.5 -69.5q0 -39 -29 -68t-70 -29 q-39 0 -67.5 28t-28.5 69zM569 1370q0 41 29 69.5t70 28.5t68.5 -28.5t27.5 -69.5t-28.5 -69.5t-69.5 -26.5q-39 0 -68 28.5t-29 67.5z" />
<glyph unicode="+" d="M111 598v176h268v330h176v-332h272v-174h-270v-332h-176v332h-270z" />
<glyph unicode="," horiz-adv-x="542" d="M-2 -352l158 577q57 92 168 92q113 0 127 -92l-281 -577h-172z" />
<glyph unicode="-" horiz-adv-x="618" d="M84 569v232h451v-232h-451z" />
<glyph unicode="." horiz-adv-x="522" d="M92 151.5q0 69.5 49 120t119 50.5t120 -49.5t50 -119t-49 -119.5t-118.5 -50t-120 49t-50.5 118.5z" />
<glyph unicode="/" horiz-adv-x="1026" d="M20 -401l820 2033l166 -67l-820 -2032z" />
<glyph unicode="0" d="M78 705q0 725 389 725q115 0 196.5 -63.5t122.5 -175.5t57.5 -228.5t16.5 -258t-16.5 -258t-57.5 -228.5t-122.5 -175t-196.5 -63q-389 0 -389 725zM328 696q0 -254 27.5 -378.5t111.5 -124.5q86 0 113.5 123.5t27.5 379.5q0 262 -28.5 399.5t-112.5 137.5t-111.5 -138.5 t-27.5 -398.5z" />
<glyph unicode="1" d="M111 1196q143 18 246.5 81.5t134.5 131.5h194v-1409h-268v1087q-98 -43 -281 -53z" />
<glyph unicode="2" d="M43 0l418 725q88 156 88 272q0 92 -54.5 151.5t-154.5 59.5q-94 0 -176 -47l-68 187q121 82 316 82q203 0 305 -119t102 -287q0 -158 -141 -375l-264 -403h407v-246h-778z" />
<glyph unicode="3" d="M63 61l74 201q72 -55 205 -55q90 0 148.5 63.5t58.5 155.5q0 113 -77 180.5t-206 69.5v155q121 14 189.5 69.5t68.5 143.5q0 72 -49 121t-131 49q-92 0 -174 -51l-68 185q119 82 312 82q174 0 271 -101.5t97 -245.5q0 -182 -161 -282v-4q201 -115 200 -363 q0 -190 -120.5 -322t-299.5 -132q-225 -1 -338 81z" />
<glyph unicode="4" d="M78 279v186l444 944h250v-948h88v-182h-88v-279h-254v279h-440zM246 461h272v446l4 144h-4q-29 -74 -61 -142z" />
<glyph unicode="5" d="M68 61l71 201q74 -55 209 -55q84 0 143.5 63.5t59.5 153.5q0 139 -101.5 213t-320.5 22l64 750h593v-246h-415l-23 -299q229 18 353 -104.5t124 -331.5q0 -184 -121.5 -316t-302.5 -132q-214 -1 -333 81z" />
<glyph unicode="6" d="M78 518q0 186 54 343t129 252t169 168t156.5 101.5t109.5 42.5l68 -196q-109 -37 -216.5 -133.5t-158.5 -245.5q39 14 98 14q180 0 276.5 -123t96.5 -313q0 -186 -99 -317t-288 -131q-182 0 -288.5 142t-106.5 396zM328 512q0 -334 147 -334q133 0 133 250 q0 117 -44 189.5t-136 72.5q-55 0 -88 -12q-12 -72 -12 -166z" />
<glyph unicode="7" d="M94 1163v246h803l-152 -432q-231 -657 -282 -977h-324l428 1163h-473z" />
<glyph unicode="8" d="M78 352q0 119 57.5 206t173.5 177q-104 90 -150 167t-46 185q0 154 103 248.5t250.5 94.5t253 -94.5t105.5 -248.5q0 -106 -47 -175.5t-160 -161.5q123 -102 182.5 -191.5t59.5 -208.5q0 -166 -113.5 -268t-279.5 -102q-168 0 -278.5 101t-110.5 271zM307 360 q0 -72 44 -124t111.5 -52t109.5 49.5t42 123t-34.5 129t-120.5 126.5q-84 -66 -118 -122t-34 -130zM338 1092q0 -61 28.5 -109.5t104.5 -116.5q78 66 108.5 115t30.5 112.5t-40 107.5t-97 44q-59 0 -97 -43.5t-38 -109.5z" />
<glyph unicode="9" d="M78 981q0 188 98 318.5t287 130.5q182 0 289.5 -142.5t107.5 -394.5q0 -186 -54 -344t-129 -253t-170 -168t-156.5 -102.5t-110.5 -43.5l-66 198q111 39 218.5 136.5t156.5 242.5q-43 -14 -100 -14q-180 0 -275.5 124t-95.5 312zM328 981q0 -264 182 -264q49 0 88 14 q10 78 10 166q0 166 -40 251t-107 85q-133 0 -133 -252z" />
<glyph unicode=":" horiz-adv-x="520" d="M92 151.5q0 69.5 49 118.5t119 49q72 0 120 -49t48 -118q0 -72 -49 -121t-119 -49t-119 50t-49 119.5zM92 821.5q0 69.5 49 118.5t119 49q72 0 120 -48t48 -120q0 -70 -49 -119t-119 -49t-119 49.5t-49 119z" />
<glyph unicode=";" horiz-adv-x="542" d="M-2 -352l158 577q57 92 168 92q113 0 127 -92l-281 -577h-172zM115 821q0 72 49 121t118.5 49t119 -50t49.5 -119.5t-49.5 -119t-119 -49.5t-118.5 49t-49 119z" />
<glyph unicode="&#x3c;" d="M111 594v180l716 318v-203l-538 -205l538 -203v-202z" />
<glyph unicode="=" d="M111 397v174h716v-174h-716zM111 797v176h716v-176h-716z" />
<glyph unicode="&#x3e;" d="M111 276v205l536 203l-536 203v205l716 -316v-180z" />
<glyph unicode="?" horiz-adv-x="813" d="M68 1346q125 84 303 84q184 0 281.5 -93.5t97.5 -257.5q0 -113 -74 -200.5t-164 -130.5l-16 -256h-213l-23 333q90 20 153.5 81t63.5 143q0 66 -41 111.5t-123 45.5q-94 0 -168 -45zM221 149.5q0 69.5 49 119.5t119 50t120 -50t50 -119.5t-50 -118.5t-120 -49t-119 49 t-49 118.5z" />
<glyph unicode="@" horiz-adv-x="1445" d="M90 453q0 258 101.5 483t277.5 359.5t385 134.5q221 0 357.5 -160t136.5 -432q0 -100 -25 -220t-71 -235t-122.5 -191.5t-166.5 -76.5q-121 0 -140 164q-104 -162 -229 -162q-106 0 -161.5 98t-55.5 240q0 123 40 252t123 226t189 97q66 0 104.5 -36t75.5 -117l23 114 h123l-56 -315q-2 -8 -9 -50t-14 -82t-14.5 -93.5t-7.5 -92.5q-2 -59 8.5 -82.5t36.5 -23.5q53 0 100.5 71.5t76 171t45 192.5t16.5 147q0 223 -109.5 354t-283.5 131q-180 0 -328.5 -126t-228.5 -324.5t-80 -417.5q0 -283 146.5 -451t371.5 -168q106 0 196.5 27.5t160 83 t106.5 94.5t86 100l59 -94q-59 -76 -110.5 -126t-125 -100t-167.5 -76t-209 -26q-276 0 -453.5 199t-177.5 539zM518 459q0 -92 33 -145.5t88 -53.5q68 0 122 78t77.5 172t25.5 174q0 90 -35.5 147.5t-91.5 57.5q-70 0 -122 -79t-74.5 -174t-22.5 -177z" />
<glyph unicode="A" horiz-adv-x="1040" d="M8 0l389 1409h252l383 -1409h-287l-73 299h-346l-74 -299h-244zM369 487h264l-92 404l-35 182h-4q-16 -94 -37 -182z" />
<glyph unicode="B" horiz-adv-x="1048" d="M123 61v1287q127 82 360 82q215 0 336 -101.5t121 -273.5q0 -129 -64.5 -204t-152.5 -106v-4q100 -31 177 -117.5t77 -234.5q0 -211 -136 -310t-345 -99q-244 -1 -373 81zM393 193q43 -16 99 -17h6q97 0 147 57q51 59 51 173q0 129 -60.5 186t-201.5 57h-41v-456z M393 809h41q125 0 180.5 50t55.5 173q0 205 -176 205q-63 0 -101 -14v-414z" />
<glyph unicode="C" horiz-adv-x="858" d="M88 705q0 195 49 355.5t159 265t263 104.5q166 0 258 -82l-55 -187q-51 41 -144 41q-90 0 -147 -77.5t-76.5 -183t-19.5 -236.5q0 -125 22.5 -229.5t78.5 -179.5t140 -75q90 0 146 41l57 -201q-86 -82 -266 -81q-227 0 -346 207t-119 518z" />
<glyph unicode="D" horiz-adv-x="1091" d="M123 61v1287q139 82 344 82q276 0 406.5 -196t130.5 -525q0 -156 -29 -284t-88.5 -230.5t-162.5 -158.5t-243 -56q-239 -1 -358 81zM399 215q33 -12 82 -12q129 0 184.5 119.5t55.5 394.5q0 260 -57.5 381t-186.5 121q-45 0 -78 -15v-989z" />
<glyph unicode="E" horiz-adv-x="806" d="M123 0v1409h608v-217h-328v-369h287v-211h-287v-395h328v-217h-608z" />
<glyph unicode="F" horiz-adv-x="788" d="M123 0v1409h608v-217h-328v-369h287v-211h-287v-612h-280z" />
<glyph unicode="G" horiz-adv-x="1081" d="M88 711q0 317 146.5 518t400.5 201q205 0 317 -82l-82 -193q-72 49 -202 49q-135 0 -216 -129q-79 -126 -79 -353v-11q2 -141 24.5 -251t76.5 -180.5t132 -70.5q57 0 90 14v406h-135v194h408v-762q-115 -82 -344 -81q-258 0 -397.5 199.5t-139.5 531.5z" />
<glyph unicode="H" horiz-adv-x="1101" d="M123 0v1409h280v-586h293v586h283v-1409h-283v612h-293v-612h-280z" />
<glyph unicode="I" horiz-adv-x="530" d="M127 0v1409h281v-1409h-281z" />
<glyph unicode="J" horiz-adv-x="534" d="M-49 -238q74 16 126 94t52 201v1352h283v-1319q0 -248 -129 -389t-332 -160v221z" />
<glyph unicode="K" horiz-adv-x="1030" d="M127 0v1409h279v-655h4l305 655h276l-325 -653l356 -756h-313l-299 719h-4v-719h-279z" />
<glyph unicode="L" horiz-adv-x="745" d="M127 0v1409h281v-1192h301v-217h-582z" />
<glyph unicode="M" horiz-adv-x="1394" d="M70 0l123 1409h260l204 -784l35 -156h4q14 78 35 154l211 786h258l125 -1409h-264l-55 801l-5 157h-4q-18 -84 -36 -157l-207 -801h-133l-209 801l-35 157h-4q0 -86 -4 -155l-54 -803h-245z" />
<glyph unicode="N" horiz-adv-x="1146" d="M123 0v1409h248l356 -723l61 -137h5q-4 74 -5 139v721h236v-1409h-213l-397 815l-56 129h-4q4 -61 4 -127v-817h-235z" />
<glyph unicode="O" horiz-adv-x="1118" d="M88 704.5q0 319.5 118 522.5t353.5 203t353 -203t117.5 -522.5t-117.5 -522t-353 -202.5t-353.5 202.5t-118 522zM375 714.5q0 -497.5 184 -497.5t184 497.5t-184 497.5t-184 -497.5z" />
<glyph unicode="P" horiz-adv-x="993" d="M123 0v1348q139 82 360 82q238 0 349.5 -121t111.5 -330q0 -213 -127 -337q-111 -108 -320 -108q-31 0 -65 3l-31 2v-539h-278zM401 733l31 -2q14 -1 26 -1q108 0 155 63q52 70 53 188q0 256 -187 256q-47 0 -78 -12v-492z" />
<glyph unicode="Q" horiz-adv-x="1118" d="M88 704.5q0 319.5 118 522.5t353 203q121 0 214 -57.5t147.5 -158t82 -229.5t27.5 -280q0 -453 -209 -635l183 -256l-224 -197l-135 373q-39 -10 -86 -10q-236 0 -353.5 202.5t-117.5 522zM375 714.5q0 -497.5 184 -497.5q186 0 186 497.5t-186 497.5q-184 0 -184 -497.5 z" />
<glyph unicode="R" horiz-adv-x="1042" d="M123 0v1348q135 82 356 82q465 0 465 -445q0 -125 -76.5 -224t-179.5 -124v-4l320 -633h-310l-292 662h-5v-662h-278zM401 733q18 -6 33 -6q104 0 168 66.5t64 183.5q0 129 -42 195.5t-143 66.5q-41 0 -80 -14v-492z" />
<glyph unicode="S" horiz-adv-x="829" d="M55 61l66 222q76 -66 194 -66q70 0 114 42t44 106q0 74 -38 130t-142 144q-117 100 -170 194.5t-53 206.5q0 176 104.5 283t271.5 107q178 0 275 -82l-51 -191q-66 53 -176 53q-66 0 -107 -40t-41 -109.5t37 -121.5t137 -138q131 -113 189.5 -203t58.5 -215 q0 -182 -109.5 -292.5t-289.5 -110.5q-208 -1 -314 81z" />
<glyph unicode="T" horiz-adv-x="765" d="M35 1192v217h696v-217h-207v-1192h-282v1192h-207z" />
<glyph unicode="U" horiz-adv-x="1071" d="M121 408v1001h280v-1014q0 -82 38 -128t105.5 -46t106.5 46t39 130v1012h260v-1001q0 -201 -117.5 -317t-298 -116t-297 116t-116.5 317z" />
<glyph unicode="V" horiz-adv-x="960" d="M18 1409h287l158 -850l24 -176h5q10 94 26 176l164 850h260l-338 -1409h-248z" />
<glyph unicode="W" horiz-adv-x="1415" d="M29 1409h272l125 -817l18 -166h2q8 84 25 164l158 819h188l156 -815l24 -168h2q8 88 21 166l125 817h241l-266 -1409h-233l-148 707l-24 157h-4q-12 -78 -29 -157l-152 -707h-235z" />
<glyph unicode="X" horiz-adv-x="937" d="M2 0l326 713l-289 696h285l157 -426h4l164 426h248l-283 -657l322 -752h-305l-172 459l-4 2l-174 -461h-279z" />
<glyph unicode="Y" horiz-adv-x="907" d="M0 1409h291l174 -518h4l180 518h260l-317 -795v-614h-281v614z" />
<glyph unicode="Z" horiz-adv-x="815" d="M33 0l379 1190h-340v219h686l-359 -1192h361v-217h-727z" />
<glyph unicode="[" horiz-adv-x="614" d="M123 -440v2048h442v-172h-219v-1704h219v-172h-442z" />
<glyph unicode="\" horiz-adv-x="1030" d="M25 1563l165 69l820 -2033l-166 -66z" />
<glyph unicode="]" horiz-adv-x="614" d="M49 -268h219v1704h-219v172h443v-2048h-443v172z" />
<glyph unicode="^" horiz-adv-x="985" d="M104 928l277 430q41 66 113 65q70 0 110 -65l277 -430l-103 -119l-284 373l-285 -373z" />
<glyph unicode="_" d="M-20 -260h976v-195h-976v195z" />
<glyph unicode="`" horiz-adv-x="397" d="M-12 1497q14 43 97 42t142 -42l95 -272h-125z" />
<glyph unicode="a" d="M68 326q0 197 129 286.5t374 122.5v37q0 154 -157 154q-123 0 -234 -58l-55 174q150 82 340 82q362 0 362 -405v-658q-127 -82 -362 -81q-197 0 -297 90t-100 256zM317 336q0 -176 160 -176q47 0 94 18v397q-133 -18 -193.5 -71t-60.5 -168z" />
<glyph unicode="b" horiz-adv-x="983" d="M111 61v1547h264v-527q59 35 166 35q162 0 261 -145.5t99 -388.5q0 -293 -117.5 -447.5t-347.5 -154.5q-221 -1 -325 81zM375 186q35 -14 78 -14q184 0 184 389q0 373 -168 373q-59 0 -94 -21v-727z" />
<glyph unicode="c" horiz-adv-x="733" d="M82 555q0 270 108.5 419.5t272.5 149.5q156 0 229 -82l-53 -165q-41 41 -113 41q-86 0 -131 -95.5t-45 -263.5t46 -263t126 -95q76 0 117 41l55 -181q-74 -82 -231 -81q-174 0 -277.5 149.5t-103.5 425.5z" />
<glyph unicode="d" horiz-adv-x="983" d="M82 545q0 262 109.5 416.5t287.5 154.5q76 0 129 -20v512h266v-1547q-131 -82 -348 -81q-213 0 -328.5 145.5t-115.5 419.5zM346 559q0 -379 189 -379q53 0 73 13v735q-37 8 -65 8q-197 0 -197 -377z" />
<glyph unicode="e" horiz-adv-x="970" d="M82 555q0 254 110.5 411.5t303.5 157.5q207 0 308 -166q87 -143 87 -381q0 -39 -2 -79l-543 -68q25 -240 217 -240q139 0 232 58l59 -187q-117 -82 -326 -81q-217 0 -331.5 151.5t-114.5 423.5zM330 602l299 37q0 293 -140 293q-74 0 -117 -91q-42 -87 -42 -226v-13z" />
<glyph unicode="f" horiz-adv-x="626" d="M66 905v199h98v113q0 205 111 309q92 86 236 86q31 0 64 -4v-197h-12q-59 0 -94 -35q-39 -39 -39 -133v-139h145v-199h-145v-905h-266v905h-98z" />
<glyph unicode="g" horiz-adv-x="983" d="M82 522q0 293 118.5 447.5t354.5 154.5q209 0 319 -82v-1050q0 -225 -109.5 -339t-297.5 -114q-223 0 -342 84l70 197q82 -61 223 -62q190 0 190 207v58q-57 -43 -164 -43q-164 0 -263 148t-99 394zM346 541q0 -166 41 -267.5t127 -101.5q53 0 94 25v721q-33 14 -82 14 q-180 0 -180 -391z" />
<glyph unicode="h" horiz-adv-x="995" d="M111 0v1608h264v-537q86 51 194 51q152 0 235 -92t83 -254v-776h-269v776q0 74 -34.5 114t-94.5 40q-63 0 -114 -29v-901h-264z" />
<glyph unicode="i" horiz-adv-x="495" d="M104 1427.5q0 59.5 41 101.5t100.5 42t102.5 -42t43 -101.5t-43 -101.5t-102 -42q-57 0 -99.5 42t-42.5 101.5zM115 0v1104h266v-1104h-266z" />
<glyph unicode="j" horiz-adv-x="493" d="M-41 -254q156 59 156 340v1018h264v-987q0 -256 -122 -411t-298 -165v205zM104 1427.5q0 59.5 41 101.5t100.5 42t102.5 -42t43 -101.5t-43 -101.5t-102 -42q-57 0 -99.5 42t-42.5 101.5z" />
<glyph unicode="k" horiz-adv-x="948" d="M113 0v1608h264v-1010h4l283 506h262l-308 -506l330 -598h-286l-281 578h-4v-578h-264z" />
<glyph unicode="l" horiz-adv-x="497" d="M115 0v1608h268v-1608h-268z" />
<glyph unicode="m" horiz-adv-x="1505" d="M111 0v1042q143 82 374 82q209 0 297 -106q106 106 297 106q143 0 229.5 -91t86.5 -253v-780h-267v780q0 70 -32.5 111t-91.5 41q-70 0 -117 -49v-883h-269v778q0 70 -34.5 112t-100.5 42q-57 0 -108 -21v-911h-264z" />
<glyph unicode="n" horiz-adv-x="995" d="M111 0v1042q147 82 381 82q203 0 299 -84t96 -260v-780h-269v780q0 150 -133 150q-70 0 -110 -21v-909h-264z" />
<glyph unicode="o" horiz-adv-x="970" d="M82 553q0 256 103.5 413.5t300 157.5t300 -157.5t103.5 -413.5t-103.5 -414.5t-300 -158.5t-300 158.5t-103.5 414.5zM348 559q0 -113 9.5 -186.5t41 -125.5t86.5 -52q57 0 89 52t41.5 124.5t9.5 185.5q0 84 -5.5 144.5t-19.5 114.5t-43 83t-72 29q-80 0 -108.5 -97.5 t-28.5 -271.5z" />
<glyph unicode="p" horiz-adv-x="983" d="M111 -440v1482q135 82 338 82q217 0 335.5 -143t118.5 -424q0 -262 -109.5 -417.5t-287.5 -155.5q-76 0 -129 22v-446h-266zM375 182q47 -10 65 -10q57 0 97.5 33t60.5 90t29.5 119.5t9.5 136.5q0 383 -186 383q-43 0 -76 -14v-738z" />
<glyph unicode="q" horiz-adv-x="983" d="M82 522q0 291 120 446.5t345 155.5q215 0 327 -82v-1482h-266v463q-57 -39 -164 -39q-164 0 -263 145t-99 393zM346 541q0 -166 41 -267.5t129 -101.5q51 0 92 23v723q-29 14 -78 14q-184 0 -184 -391z" />
<glyph unicode="r" horiz-adv-x="620" d="M111 0v1042q138 82 402 83q45 0 93 -3l-49 -217q-49 25 -97 25q-43 0 -85 -21v-909h-264z" />
<glyph unicode="s" horiz-adv-x="745" d="M55 61l66 195q66 -61 168 -61q51 0 82.5 27.5t31.5 74.5q0 57 -26.5 92t-106.5 94q-197 147 -196 320q0 141 86 231t223 90q168 0 270 -82l-63 -170q-57 53 -146 54q-47 0 -76.5 -31t-29.5 -74q0 -49 32.5 -87t116.5 -99q100 -76 148.5 -146.5t48.5 -181.5 q0 -141 -100.5 -234t-253.5 -93q-181 -1 -275 81z" />
<glyph unicode="t" horiz-adv-x="630" d="M66 905v199h98v239l266 84v-323h145v-199h-145v-573q0 -137 90 -137q20 0 55 10v-191q-39 -29 -133 -28q-133 0 -205.5 85t-72.5 232v602h-98z" />
<glyph unicode="u" horiz-adv-x="989" d="M111 362v742h266v-772q0 -143 129 -144q59 0 106 27v889h269v-1038q-135 -86 -383 -86q-190 0 -288.5 90.5t-98.5 291.5z" />
<glyph unicode="v" horiz-adv-x="907" d="M37 1104h272l154 -735h2l160 735h245l-288 -1104h-252z" />
<glyph unicode="w" horiz-adv-x="1370" d="M47 1104h250l135 -744h4l162 744h197l153 -744h6l142 744h227l-258 -1104h-231l-152 684h-4l-156 -684h-231z" />
<glyph unicode="x" horiz-adv-x="884" d="M18 0l289 557l-258 547h266l136 -313h4l147 313h238l-267 -514l293 -590h-286l-146 346h-2l-158 -346h-256z" />
<glyph unicode="y" horiz-adv-x="907" d="M37 1104h272l150 -748h4l164 748h243l-417 -1544h-269l158 440z" />
<glyph unicode="z" horiz-adv-x="757" d="M47 0l322 905h-297v199h628l-307 -903h309v-201h-655z" />
<glyph unicode="{" horiz-adv-x="733" d="M78 602v160q63 0 109 44t46 148v330q0 324 422 324v-152q-195 0 -194 -194v-332q0 -111 -59.5 -173.5t-135.5 -72.5v-4q78 -10 136.5 -73.5t58.5 -180.5v-336q0 -195 194 -194v-152q-422 0 -422 326v329q0 111 -46 157t-109 46z" />
<glyph unicode="|" horiz-adv-x="438" d="M119 -440v2048h200v-2048h-200z" />
<glyph unicode="}" horiz-adv-x="733" d="M78 -104q195 0 194 194v336q0 117 58.5 180.5t136.5 73.5v4q-76 10 -135.5 72.5t-59.5 173.5v332q0 195 -194 194v152q422 0 422 -324v-330q0 -104 46 -148t109 -44v-160q-63 0 -109 -46t-46 -157v-329q0 -326 -422 -326v152z" />
<glyph unicode="~" horiz-adv-x="1136" d="M141 723q37 158 201 176q84 10 204 -55.5t181 -57.5q145 18 182 136l84 -189q-41 -139 -209 -164q-78 -10 -200.5 56.5t-190 58.5t-111.5 -47t-61 -88z" />
<glyph unicode="&#xa1;" horiz-adv-x="587" d="M145 819.5q0 69.5 49.5 118.5t118.5 49q72 0 120 -49t48 -118.5t-49 -120t-118.5 -50.5t-119 50.5t-49.5 120zM147 -440l60 917h213l57 -917h-330z" />
<glyph unicode="&#xa2;" d="M152 702q0 201 72.5 327t193.5 157l-21 205h160l-18 -197q100 -10 157 -76l-51 -164q-43 43 -104 43q-133 0 -133 -292q0 -143 35.5 -220t97 -77t104.5 43l53 -177q-55 -66 -159 -75l16 -199h-160l21 205q-125 33 -194.5 160.5t-69.5 336.5z" />
<glyph unicode="&#xa3;" d="M82 647v180h131q-29 106 -29 228q0 156 96.5 265.5t280.5 109.5q195 0 293 -82l-61 -183q-59 47 -170 47q-186 0 -187 -239q0 -84 17 -146h225v-180h-203q10 -51 10 -143q0 -141 -65 -258h440v-246h-774q178 225 178 487q0 80 -18 160h-164z" />
<glyph unicode="&#xa4;" d="M53 356l92 101q-80 94 -79.5 258t79.5 258l-92 100l86 92l90 -96q92 84 240 84q145 0 238 -84l90 96l86 -92l-92 -100q80 -94 79.5 -258t-79.5 -258l92 -101l-86 -92l-90 96q-96 -84 -238 -84q-143 0 -240 84l-90 -96zM227 715q0 -115 69 -196t173 -81q102 0 171 81 t69 196q0 117 -68 196.5t-172 79.5q-106 0 -174 -79.5t-68 -196.5z" />
<glyph unicode="&#xa5;" d="M27 1409h280l170 -553h4l185 553h243l-207 -520l170 14v-117l-202 15l-76 -187l278 15v-119l-274 14v-524h-258v524l-277 -14v119l279 -15l-74 187l-205 -15v117l170 -14z" />
<glyph unicode="&#xa6;" horiz-adv-x="434" d="M119 -358v716h196v-716h-196zM119 666v716h196v-716h-196z" />
<glyph unicode="&#xa7;" d="M94 553q0 205 182 342q-88 115 -88 233q0 131 83 216.5t223 85.5q172 0 266 -82l-60 -168q-61 51 -151 51q-55 0 -85 -31t-30 -78q0 -72 92 -166l168 -170q84 -84 119 -160.5t35 -172.5q0 -104 -57.5 -193.5t-137.5 -146.5q106 -119 107 -269q0 -125 -93.5 -214 t-224.5 -89q-193 0 -284 82l63 189q63 -59 168 -60q49 0 82 31t33 70q0 49 -13.5 80.5t-56.5 74.5l-188 189q-152 151 -152 356zM291 598q0 -117 80 -197l161 -161q41 29 71 78t30 100q0 113 -80 194l-166 168q-37 -25 -66.5 -74t-29.5 -108z" />
<glyph unicode="&#xa8;" horiz-adv-x="397" d="M-86 1335q0 47 34 81t81 34t80.5 -34t33.5 -81t-33.5 -80.5t-80.5 -33.5t-81 33.5t-34 80.5zM252 1335q0 47 35 81t82 34t79.5 -34t32.5 -81t-32.5 -80.5t-79.5 -33.5t-82 33.5t-35 80.5z" />
<glyph unicode="&#xa9;" horiz-adv-x="1634" d="M94 705q0 299 212 510.5t511 211.5t512 -211.5t213 -510.5q0 -301 -213 -513t-512 -212t-511 212t-212 513zM195 705q0 -258 183 -440.5t439 -182.5q258 0 440.5 182t182.5 441q0 256 -182.5 439t-440.5 183q-256 0 -439 -183t-183 -439zM387 708.5q0 180.5 128 308.5 t310 128q199 0 328 -150l-100 -84q-92 102 -228 103q-127 0 -217 -90t-90 -215q0 -127 90 -217.5t217 -90.5q137 0 228 105l104 -84q-139 -152 -332 -152q-182 0 -310 129t-128 309.5z" />
<glyph unicode="&#xaa;" horiz-adv-x="638" d="M59 940q0 117 87 171t257 75v22q0 92 -108 92q-84 0 -162 -34l-37 104q102 49 234 49q250 0 250 -243v-396q-88 -49 -248 -49q-273 0 -273 209zM231 950q0 -111 109 -110q35 0 63 12v231q-90 -12 -131 -39.5t-41 -93.5z" />
<glyph unicode="&#xab;" horiz-adv-x="974" d="M82 684q12 18 137 219t135 219l133 -121l-194 -317l194 -317l-133 -119q-10 18 -135 218t-137 218zM453 684q12 18 137 219t135 219l135 -121l-196 -317l196 -317l-135 -119q-10 18 -135 218t-137 218z" />
<glyph unicode="&#xac;" d="M111 596v178h716v-518h-178v342z" />
<glyph unicode="&#xad;" horiz-adv-x="618" d="M84 569v232h451v-232h-451z" />
<glyph unicode="&#xae;" horiz-adv-x="1634" d="M94 705q0 299 212 510.5t511 211.5t512 -211.5t213 -510.5q0 -301 -213 -513t-512 -212t-511 212t-212 513zM195 705q0 -258 183 -440.5t439 -182.5q258 0 440.5 182t182.5 441q0 256 -182.5 439t-440.5 183q-256 0 -439 -183t-183 -439zM567 293v819q94 45 215 45 q139 0 219 -70.5t80 -173.5q0 -96 -61.5 -158.5t-163.5 -76.5l297 -385h-149l-279 373h-33l-2 -373h-123zM690 758h53q102 0 156.5 33.5t54.5 119.5q0 57 -34.5 93t-71.5 45.5t-76 9.5q-43 0 -82 -15v-286z" />
<glyph unicode="&#xaf;" horiz-adv-x="397" d="M-78 1280v158h553v-158h-553z" />
<glyph unicode="&#xb0;" horiz-adv-x="802" d="M86 1114q0 131 92 223.5t223 92.5t223.5 -92.5t92.5 -223.5t-92.5 -223t-223.5 -92t-223 92t-92 223zM244 1114.5q0 -65.5 46 -112t111.5 -46.5t111.5 46.5t46 112t-46 111.5t-111.5 46t-111.5 -46t-46 -111.5z" />
<glyph unicode="&#xb1;" d="M111 119v174h716v-174h-716zM111 743v175h268v331h176v-331h272v-175h-270v-331h-176v331h-270z" />
<glyph unicode="&#xb2;" horiz-adv-x="647" d="M53 553l264 444q57 94 58 160q0 53 -34 87t-95.5 34t-114.5 -31l-49 123q88 53 211 53q133 0 200.5 -72.5t67.5 -176.5q0 -92 -92 -230l-158 -231h260v-160h-518z" />
<glyph unicode="&#xb3;" horiz-adv-x="647" d="M66 594l53 133q51 -37 135 -37q55 0 90 36t35 87q0 66 -48 104.5t-132 40.5v105q166 20 166 121q0 41 -31 68.5t-80 27.5q-53 0 -115 -31l-49 119q84 55 209 55q115 0 178.5 -63.5t63.5 -151.5q0 -106 -99 -170q125 -68 125 -219q0 -117 -79.5 -197.5t-196.5 -80.5 q-147 0 -225 53z" />
<glyph unicode="&#xb4;" horiz-adv-x="397" d="M76 1223l92 272q59 41 143 42t97 -42l-205 -272h-127z" />
<glyph unicode="&#xb5;" horiz-adv-x="995" d="M111 -440v1544h264v-897q55 -35 117 -35q74 0 126 29v903h269v-1038q-133 -84 -316 -84q-98 0 -196 53v-475h-264z" />
<glyph unicode="&#xb6;" d="M23 989q0 205 119.5 312.5t310.5 107.5h428v-127l-60 -2v-1720h-147v1720h-197v-1720h-149v1038q-139 29 -222 131t-83 260z" />
<glyph unicode="&#xb7;" horiz-adv-x="485" d="M74 696.5q0 69.5 49 118.5t118.5 49t120 -49t50.5 -118.5t-49.5 -119t-118.5 -49.5q-72 0 -121 49.5t-49 119z" />
<glyph unicode="&#xb8;" horiz-adv-x="397" d="M-27 -387l45 88q98 -10 166 11.5t68 56.5q0 59 -172 51l41 82q162 8 232.5 -23t70.5 -106q0 -94 -128 -139.5t-323 -20.5z" />
<glyph unicode="&#xb9;" horiz-adv-x="647" d="M100 1280q96 12 162 50t86 79h135v-858h-184v651q-68 -25 -180 -31z" />
<glyph unicode="&#xba;" horiz-adv-x="653" d="M47 1079q0 154 73 249t208 95t206.5 -95t71.5 -249q0 -152 -71.5 -247t-206.5 -95q-137 0 -209 95t-72 247zM231 1083q0 -217 97 -217q55 0 74.5 56.5t19.5 160.5q0 221 -94 222q-57 0 -77 -59t-20 -163z" />
<glyph unicode="&#xbb;" horiz-adv-x="974" d="M115 367l196 317l-196 317l133 121q6 -12 135 -219t137 -219q-8 -12 -137 -218t-135 -218zM485 367l197 317l-197 317l136 121q6 -12 135 -219t137 -219q-8 -12 -137 -218t-135 -218z" />
<glyph unicode="&#xbc;" horiz-adv-x="1495" d="M66 1280q94 12 159.5 50t87.5 79h133v-858h-184v651q-68 -25 -178 -31zM403 35l574 1409l166 -68l-574 -1409zM915 166v121l289 571h170v-569h56v-123h-56v-166h-176v166h-283zM1040 289h158v237l4 92l-6 -16q-6 -14 -16.5 -36.5t-16.5 -35.5q-107 -206 -123 -241z" />
<glyph unicode="&#xbd;" horiz-adv-x="1495" d="M66 1280q94 12 159.5 50t87.5 79h133v-858h-184v651q-68 -25 -178 -31zM344 35l576 1409l163 -68l-573 -1409zM911 0l267 444q55 94 55 160q0 53 -34 87t-95 34q-57 0 -115 -31l-49 123q88 53 211 53q133 0 200.5 -72.5t67.5 -176.5q0 -92 -92 -228l-158 -233h261v-160 h-519z" />
<glyph unicode="&#xbe;" horiz-adv-x="1495" d="M66 594l51 133q51 -37 137 -37q53 0 88 36t35 87q0 66 -48 104.5t-132 40.5v105q166 18 165 121q0 41 -30.5 68.5t-79.5 27.5q-53 0 -115 -31l-47 119q82 55 207 55q115 0 179.5 -63.5t64.5 -151.5q0 -104 -99 -170q123 -70 123 -219q0 -117 -79.5 -197.5t-196.5 -80.5 q-145 0 -223 53zM434 35l574 1409l166 -68l-576 -1409zM915 166v121l289 571h170v-569h56v-123h-56v-166h-176v166h-283zM1040 289h158v237l4 92l-6 -16q-6 -14 -16.5 -36.5t-16.5 -35.5q-107 -206 -123 -241z" />
<glyph unicode="&#xbf;" horiz-adv-x="815" d="M68 -111q0 115 73.5 205t165.5 131l17 252h213l22 -330q-96 -23 -157.5 -83t-61.5 -144q0 -68 41 -113t123 -45q98 0 172 43l76 -182q-115 -80 -308 -80q-184 0 -280 91t-96 255zM262 819.5q0 69.5 49 119.5t119 50t119 -49t49 -121q0 -70 -49 -119t-119 -49t-119 49.5 t-49 119z" />
<glyph unicode="&#xc0;" horiz-adv-x="1040" d="M8 0l389 1409h252l383 -1409h-287l-73 299h-346l-74 -299h-244zM272 1782q14 43 98.5 43t141.5 -43l96 -271h-127zM369 487h264l-92 404l-35 182h-4q-16 -94 -37 -182z" />
<glyph unicode="&#xc1;" horiz-adv-x="1040" d="M8 0l389 1409h252l383 -1409h-287l-73 299h-346l-74 -299h-244zM369 487h264l-92 404l-35 182h-4q-16 -94 -37 -182zM444 1509l93 273q59 41 143 42t96 -42l-207 -273h-125z" />
<glyph unicode="&#xc2;" horiz-adv-x="1040" d="M8 0l389 1409h252l383 -1409h-287l-73 299h-346l-74 -299h-244zM262 1556l187 218q33 37 73.5 36.5t73.5 -36.5l186 -218l-69 -67l-191 147l-188 -147zM369 487h264l-92 404l-35 182h-4q-16 -94 -37 -182z" />
<glyph unicode="&#xc3;" horiz-adv-x="1040" d="M8 0l389 1409h252l383 -1409h-287l-73 299h-346l-74 -299h-244zM236 1626q27 106 135 119q59 8 140 -37t120 -41q100 14 125 92l61 -135q-29 -96 -141 -111q-53 -8 -136 38t-128 40q-88 -12 -117 -92zM369 487h264l-92 404l-35 182h-4q-16 -94 -37 -182z" />
<glyph unicode="&#xc4;" horiz-adv-x="1040" d="M8 0l389 1409h252l383 -1409h-287l-73 299h-346l-74 -299h-244zM240 1624q0 47 33.5 81t80.5 34t81 -34t34 -81t-34 -81t-81 -34t-80.5 34t-33.5 81zM369 487h264l-92 404l-35 182h-4q-16 -94 -37 -182zM578 1624q0 47 33.5 81t80.5 34t81 -34t34 -81t-34 -81t-81 -34 t-80.5 34t-33.5 81z" />
<glyph unicode="&#xc5;" horiz-adv-x="1040" d="M8 0l389 1409h252l383 -1409h-287l-73 299h-346l-74 -299h-244zM348 1667q0 72 51.5 123t124.5 51q72 0 123 -51t51 -123t-51 -123t-123 -51q-74 0 -125 51t-51 123zM369 485h264l-92 406l-35 182h-4q-16 -94 -37 -182zM432 1667q0 -39 26.5 -64.5t65.5 -25.5 q37 0 63.5 25.5t26.5 64.5t-26.5 65.5t-63.5 26.5q-39 0 -65.5 -26.5t-26.5 -65.5z" />
<glyph unicode="&#xc6;" horiz-adv-x="1265" d="M-29 0l500 1409h647v-235h-360l69 -340h291v-230h-248l76 -368h297v-236h-532l-47 297h-345l-98 -297h-250zM375 485h266l-63 418l-21 170h-6q-20 -88 -45 -168z" />
<glyph unicode="&#xc7;" horiz-adv-x="858" d="M88 705q0 195 49 355.5t159 265t263 104.5q166 0 258 -82l-55 -187q-51 41 -144 41q-90 0 -147 -77.5t-76.5 -183t-19.5 -236.5q0 -125 22.5 -229.5t78.5 -179.5t140 -75q90 0 146 41l57 -201q-86 -82 -266 -81q-227 0 -346 207t-119 518zM270 -383l45 88 q96 -12 165 10.5t69 57.5q0 57 -174 49l41 82q162 10 232.5 -20.5t70.5 -106.5q0 -94 -128 -140.5t-321 -19.5z" />
<glyph unicode="&#xc8;" horiz-adv-x="806" d="M123 0v1409h608v-217h-328v-369h287v-211h-287v-395h328v-217h-608zM176 1782q14 43 98 43t144 -43l94 -271h-127z" />
<glyph unicode="&#xc9;" horiz-adv-x="806" d="M123 0v1409h608v-217h-328v-369h287v-211h-287v-395h328v-217h-608zM309 1509l92 273q59 41 143.5 42t98.5 -42l-207 -273h-127z" />
<glyph unicode="&#xca;" horiz-adv-x="806" d="M123 0v1409h608v-217h-328v-369h287v-211h-287v-395h328v-217h-608zM156 1556l184 218q31 37 74 36q45 0 75 -36l185 -218l-70 -67l-190 147l-189 -147z" />
<glyph unicode="&#xcb;" horiz-adv-x="813" d="M129 0v1409h608v-217h-327v-369h286v-211h-286v-395h327v-217h-608zM147 1624q0 47 33 81t80 34t81 -34t34 -81t-34 -81t-81 -34t-80 34t-33 81zM485 1624q0 47 33 81t80 34t81 -34t34 -81t-34 -81t-81 -34t-80 34t-33 81z" />
<glyph unicode="&#xcc;" horiz-adv-x="532" d="M72 1782q14 43 98 43t141 -43l97 -271h-127zM176 0v1409h281v-1409h-281z" />
<glyph unicode="&#xcd;" horiz-adv-x="528" d="M123 0v1409h280v-1409h-280zM170 1509l94 273q59 41 142 42t98 -42l-207 -273h-127z" />
<glyph unicode="&#xce;" horiz-adv-x="532" d="M8 1556l185 218q31 37 73 36q41 0 74 -36l184 -218l-69 -67l-189 147l-190 -147zM125 0v1409h283v-1409h-283z" />
<glyph unicode="&#xcf;" horiz-adv-x="532" d="M-18 1624q0 47 33.5 81t80.5 34t81 -34t34 -81t-34 -81t-81 -34t-80.5 34t-33.5 81zM125 0v1409h281v-1409h-281zM319 1624q0 47 35 81t82 34t80 -34t33 -81t-33 -81t-80 -34t-82 34t-35 81z" />
<glyph unicode="&#xd0;" horiz-adv-x="1120" d="M63 651v201h87v496q137 82 346 82q274 0 404 -196t130 -525q0 -152 -27.5 -278t-85 -230.5t-162 -162.5t-245.5 -58q-242 0 -360 81v592zM424 217q31 -12 86 -12q117 0 177.5 114.5t60.5 397.5q0 260 -57.5 381t-186.5 121q-53 0 -80 -13v-354h143v-199h-143v-436z" />
<glyph unicode="&#xd1;" horiz-adv-x="1146" d="M123 0v1409h248l356 -723l61 -137h5q-4 74 -5 139v721h236v-1409h-213l-397 815l-56 129h-4q4 -61 4 -127v-817h-235zM279 1626q27 106 135 119q57 8 139 -37t121 -41q98 12 123 92l63 -135q-29 -96 -141 -111q-53 -8 -136 38t-128 40q-88 -10 -117 -92z" />
<glyph unicode="&#xd2;" horiz-adv-x="1118" d="M88 704.5q0 319.5 118 522.5t353.5 203t353 -203t117.5 -522.5t-117.5 -522t-353 -202.5t-353.5 202.5t-118 522zM313 1782q10 43 95.5 43t144.5 -43l94 -271h-127zM375 714.5q0 -497.5 184 -497.5t184 497.5t-184 497.5t-184 -497.5z" />
<glyph unicode="&#xd3;" horiz-adv-x="1118" d="M88 704.5q0 319.5 118 522.5t353.5 203t353 -203t117.5 -522.5t-117.5 -522t-353 -202.5t-353.5 202.5t-118 522zM375 714.5q0 -497.5 184 -497.5t184 497.5t-184 497.5t-184 -497.5zM471 1509l92 273q59 41 142 42t98 -42l-205 -273h-127z" />
<glyph unicode="&#xd4;" horiz-adv-x="1118" d="M88 704.5q0 319.5 118 522.5t353.5 203t353 -203t117.5 -522.5t-117.5 -522t-353 -202.5t-353.5 202.5t-118 522zM299 1556l184 218q31 37 76 36q41 0 74 -36l184 -218l-67 -67l-191 147l-190 -147zM375 714.5q0 -497.5 184 -497.5t184 497.5t-184 497.5t-184 -497.5z " />
<glyph unicode="&#xd5;" horiz-adv-x="1118" d="M88 704.5q0 319.5 118 522.5t353.5 203t353 -203t117.5 -522.5t-117.5 -522t-353 -202.5t-353.5 202.5t-118 522zM270 1626q27 106 136 119q57 8 139 -37t121 -41q98 12 122 92l64 -135q-29 -96 -141 -111q-53 -8 -136 38t-129 40q-88 -10 -116 -92zM375 714.5 q0 -497.5 184 -497.5t184 497.5t-184 497.5t-184 -497.5z" />
<glyph unicode="&#xd6;" horiz-adv-x="1118" d="M88 704.5q0 319.5 118 522.5t353.5 203t353 -203t117.5 -522.5t-117.5 -522t-353 -202.5t-353.5 202.5t-118 522zM276 1624q0 47 33 81t80 34t81 -34t34 -81t-34 -81t-81 -34t-80 34t-33 81zM375 714.5q0 -497.5 184 -497.5t184 497.5t-184 497.5t-184 -497.5zM614 1624 q0 47 33 81t80 34t81 -34t34 -81t-34 -81t-81 -34t-80 34t-33 81z" />
<glyph unicode="&#xd7;" d="M111 188v164h716v-164h-716zM111 455v188l536 191l-536 192v188l716 -299v-163z" />
<glyph unicode="&#xd8;" horiz-adv-x="1159" d="M90 705q0 203 50 362.5t164 261t276 101.5q170 0 288 -113l119 217l80 -45l-135 -244q137 -201 137 -540q0 -315 -125 -520t-364 -205q-172 0 -289 110l-119 -215l-80 43l135 246q-137 197 -137 541zM354 717q0 -156 35 -268l356 651q-57 141 -165 141q-226 0 -226 -524z M418 315q55 -123 160 -122q225 0 225 524q0 143 -31 246z" />
<glyph unicode="&#xd9;" horiz-adv-x="1071" d="M121 408v1001h280v-1014q0 -82 38 -128t105.5 -46t106.5 46t39 130v1012h260v-1001q0 -201 -117.5 -317t-298 -116t-297 116t-116.5 317zM309 1782q14 43 98.5 43t143.5 -43l94 -271h-127z" />
<glyph unicode="&#xda;" horiz-adv-x="1071" d="M121 408v1001h280v-1014q0 -82 38 -128t105.5 -46t106.5 46t39 130v1012h260v-1001q0 -201 -117.5 -317t-298 -116t-297 116t-116.5 317zM442 1509l93 273q59 41 143 42t98 -42l-207 -273h-127z" />
<glyph unicode="&#xdb;" horiz-adv-x="1071" d="M121 408v1001h280v-1014q0 -82 38 -128t105.5 -46t106.5 46t39 130v1012h260v-1001q0 -201 -117.5 -317t-298 -116t-297 116t-116.5 317zM279 1556l184 218q31 37 74 36q45 0 75 -36l185 -218l-70 -67l-190 147l-191 -147z" />
<glyph unicode="&#xdc;" horiz-adv-x="1071" d="M121 408v1001h280v-1014q0 -82 38 -128t105.5 -46t106.5 46t39 130v1012h260v-1001q0 -201 -117.5 -317t-298 -116t-297 116t-116.5 317zM264 1624q0 47 34 81t81 34t81 -34t34 -81t-34 -81t-81 -34t-81 34t-34 81zM604 1624q0 47 33 81t80 34t80.5 -34t33.5 -81 t-33.5 -81t-80.5 -34t-80 34t-33 81z" />
<glyph unicode="&#xdd;" horiz-adv-x="907" d="M0 1409h293l174 -518h2l180 518h258l-313 -795v-614h-283v614zM379 1509l92 273q59 41 143 42t97 -42l-205 -273h-127z" />
<glyph unicode="&#xde;" horiz-adv-x="999" d="M123 0v1409h280v-231q37 12 93 12q227 0 336.5 -120t109.5 -327q0 -215 -130 -345t-378 -97l-31 4v-305h-280zM403 498l31 -2q123 -8 176.5 62.5t53.5 180.5q-2 119 -47.5 192t-137.5 73q-31 0 -76 -13v-493z" />
<glyph unicode="&#xdf;" horiz-adv-x="1036" d="M113 0v1034q0 274 105.5 434t297.5 160q184 0 285.5 -139t101.5 -356q0 -109 -18 -183q-147 -25 -148 -157q0 -47 22.5 -87t82.5 -104q70 -76 98.5 -141.5t28.5 -151.5q0 -141 -92.5 -233t-235.5 -92q-133 0 -190 61l43 197q33 -33 100 -33q49 0 80 30.5t31 82.5 q0 49 -19.5 86.5t-77.5 101.5q-117 129 -116 260q0 168 141 238q12 66 12 112q0 299 -129 299q-74 0 -105.5 -87t-31.5 -271v-1061h-266z" />
<glyph unicode="&#xe0;" d="M68 326q0 197 129 286.5t374 122.5v37q0 154 -157 154q-123 0 -234 -58l-55 174q150 82 340 82q362 0 362 -405v-658q-127 -82 -362 -81q-197 0 -297 90t-100 256zM248 1495q14 43 98 43t141 -43l95 -270h-125zM317 336q0 -176 160 -176q47 0 94 18v397 q-133 -18 -193.5 -71t-60.5 -168z" />
<glyph unicode="&#xe1;" d="M68 326q0 197 129 286.5t374 122.5v37q0 154 -157 154q-123 0 -234 -58l-55 174q150 82 340 82q362 0 362 -405v-658q-127 -82 -362 -81q-197 0 -297 90t-100 256zM317 336q0 -176 160 -176q47 0 94 18v397q-133 -18 -193.5 -71t-60.5 -168zM401 1223l95 272 q59 41 142 42t97 -42l-207 -272h-127z" />
<glyph unicode="&#xe2;" d="M68 326q0 197 129 286.5t374 122.5v37q0 154 -157 154q-123 0 -234 -58l-55 174q150 82 340 82q362 0 362 -405v-658q-127 -82 -362 -81q-197 0 -297 90t-100 256zM213 1270l184 217q31 37 74 37q45 0 76 -37l184 -217l-69 -68l-189 148l-190 -148zM317 336 q0 -176 160 -176q47 0 94 18v397q-133 -18 -193.5 -71t-60.5 -168z" />
<glyph unicode="&#xe3;" d="M68 326q0 197 129 286.5t374 122.5v37q0 154 -157 154q-123 0 -234 -58l-55 174q150 82 340 82q362 0 362 -405v-658q-127 -82 -362 -81q-197 0 -297 90t-100 256zM180 1335q27 109 135 121q57 8 138.5 -38t121.5 -40q98 14 123 92l64 -137q-29 -94 -144 -108 q-51 -8 -134 38t-128 40q-90 -14 -116 -93zM317 336q0 -176 160 -176q47 0 94 18v397q-133 -18 -193.5 -71t-60.5 -168z" />
<glyph unicode="&#xe4;" d="M68 326q0 197 129 286.5t374 122.5v37q0 154 -157 154q-123 0 -234 -58l-55 174q150 82 340 82q362 0 362 -405v-658q-127 -82 -362 -81q-197 0 -297 90t-100 256zM199 1335q0 47 33.5 81t80.5 34t81 -34t34 -81t-34 -80.5t-81 -33.5t-80.5 33.5t-33.5 80.5zM317 336 q0 -176 160 -176q47 0 94 18v397q-133 -18 -193.5 -71t-60.5 -168zM539 1335q0 47 32.5 81t79.5 34t81 -34t34 -81t-34 -80.5t-81 -33.5t-79.5 33.5t-32.5 80.5z" />
<glyph unicode="&#xe5;" d="M68 326q0 197 129 286.5t374 122.5v37q0 154 -157 154q-123 0 -234 -58l-55 174q150 82 340 82q362 0 362 -405v-658q-127 -82 -362 -81q-197 0 -297 90t-100 256zM311 1386.5q0 71.5 51.5 123t123 51.5t122.5 -51.5t51 -123t-51 -123t-122.5 -51.5t-123 51.5t-51.5 123z M317 336q0 -176 160 -176q47 0 94 18v397q-133 -18 -193.5 -71t-60.5 -168zM393 1386.5q0 -38.5 26.5 -64.5t65.5 -26t64.5 26t25.5 64.5t-25.5 65.5t-64.5 27t-65.5 -27t-26.5 -65.5z" />
<glyph unicode="&#xe6;" horiz-adv-x="1433" d="M70 328q0 195 126 286t377 121v41q0 72 -43 112t-118 40q-115 0 -230 -62l-53 176q133 82 321.5 82t260.5 -137q86 137 266 137q197 0 294 -165.5t83 -460.5l-529 -64q10 -121 66.5 -182.5t146.5 -61.5q141 0 228 56l57 -185q-106 -82 -319 -81q-88 0 -171 44t-118 109 q-72 -154 -275 -153q-176 0 -273 91t-97 257zM319 344q0 -176 136 -176q51 0 84.5 37t33.5 102v268q-137 -16 -195.5 -69t-58.5 -162zM809 602l289 35q4 301 -140 301q-70 0 -111.5 -97.5t-37.5 -238.5z" />
<glyph unicode="&#xe7;" horiz-adv-x="733" d="M82 555q0 270 108.5 419.5t272.5 149.5q156 0 229 -82l-53 -165q-41 41 -113 41q-86 0 -131 -95.5t-45 -263.5t46 -263t126 -95q76 0 117 41l55 -181q-74 -82 -231 -81q-174 0 -277.5 149.5t-103.5 425.5zM168 -383l45 88q98 -10 165.5 11.5t67.5 56.5q0 57 -174 51 l43 80q162 10 231.5 -20.5t69.5 -106.5q0 -94 -126.5 -139.5t-321.5 -20.5z" />
<glyph unicode="&#xe8;" horiz-adv-x="970" d="M82 555q0 254 110.5 411.5t303.5 157.5q207 0 308 -165.5t85 -460.5l-543 -68q25 -240 217 -240q139 0 232 58l59 -187q-117 -82 -326 -81q-217 0 -331.5 151.5t-114.5 423.5zM254 1495q14 43 97 43t143 -43l94 -270h-123zM330 602l299 37q0 293 -140 293 q-74 0 -117.5 -91.5t-41.5 -238.5z" />
<glyph unicode="&#xe9;" horiz-adv-x="970" d="M82 555q0 254 110.5 411.5t303.5 157.5q207 0 308 -165.5t85 -460.5l-543 -68q25 -240 217 -240q139 0 232 58l59 -187q-117 -82 -326 -81q-217 0 -331.5 151.5t-114.5 423.5zM330 602l299 37q0 293 -140 293q-74 0 -117.5 -91.5t-41.5 -238.5zM412 1223l92 272 q59 41 142 42t97 -42l-206 -272h-125z" />
<glyph unicode="&#xea;" horiz-adv-x="970" d="M82 555q0 254 110.5 411.5t303.5 157.5q207 0 308 -165.5t85 -460.5l-543 -68q25 -240 217 -240q139 0 232 58l59 -187q-117 -82 -326 -81q-217 0 -331.5 151.5t-114.5 423.5zM233 1270l185 217q31 37 74 37q45 0 75 -37l185 -217l-70 -68l-188 148l-191 -148zM330 602 l299 37q0 293 -140 293q-74 0 -117.5 -91.5t-41.5 -238.5z" />
<glyph unicode="&#xeb;" horiz-adv-x="970" d="M82 555q0 254 110.5 411.5t303.5 157.5q207 0 308 -165.5t85 -460.5l-543 -68q25 -240 217 -240q139 0 232 58l59 -187q-117 -82 -326 -81q-217 0 -331.5 151.5t-114.5 423.5zM217 1335q0 47 34 81t81 34t80.5 -34t33.5 -81t-33.5 -80.5t-80.5 -33.5t-81 33.5t-34 80.5z M330 602l299 37q0 293 -140 293q-74 0 -117.5 -91.5t-41.5 -238.5zM557 1335q0 47 33 81t80 34t80.5 -34t33.5 -81t-33.5 -80.5t-80.5 -33.5t-80 33.5t-33 80.5z" />
<glyph unicode="&#xec;" horiz-adv-x="493" d="M23 1495q12 43 96 43t143 -43l94 -270h-127zM121 0v1104h264v-1104h-264z" />
<glyph unicode="&#xed;" horiz-adv-x="493" d="M113 0v1104h264v-1104h-264zM137 1223l94 272q59 41 142.5 42t97.5 -42l-207 -272h-127z" />
<glyph unicode="&#xee;" horiz-adv-x="495" d="M-10 1270l184 217q33 37 74 37q43 0 74 -37l186 -217l-70 -68l-190 148l-189 -148zM113 0v1104h264v-1104h-264z" />
<glyph unicode="&#xef;" horiz-adv-x="509" d="M-29 1335q0 47 34 81t81 34t81 -34t34 -81t-34 -80.5t-81 -33.5t-81 33.5t-34 80.5zM115 0v1104h266v-1104h-266zM309 1335q0 47 34 81t81 34t81 -34t34 -81t-34 -80.5t-81 -33.5t-81 33.5t-34 80.5z" />
<glyph unicode="&#xf0;" horiz-adv-x="970" d="M78 549q0 244 98 405.5t277 161.5q49 0 86 -12q-33 117 -93 219l-153 -59q-35 70 -66 110l150 58q-29 47 -84 114l223 86q55 -61 86 -112l139 53q39 -51 70 -109l-141 -55q219 -401 219 -850q0 -272 -101.5 -427t-283.5 -155q-197 0 -311.5 149t-114.5 423zM350 557 q0 -365 144 -364q74 0 103.5 96t29.5 274q0 199 -47 363q-45 12 -78 12q-84 0 -118 -91t-34 -290z" />
<glyph unicode="&#xf1;" horiz-adv-x="995" d="M111 0v1034q152 88 389 88q387 0 387 -342v-780h-269v780q0 150 -133 150q-55 0 -110 -21v-909h-264zM201 1335q23 109 135 121q57 8 138 -38t122 -40q98 14 123 92l63 -137q-29 -94 -143 -108q-51 -8 -134 38t-130 40q-86 -10 -115 -93z" />
<glyph unicode="&#xf2;" horiz-adv-x="970" d="M82 553q0 256 103.5 413.5t300 157.5t300 -157.5t103.5 -413.5t-103.5 -414.5t-300 -158.5t-300 158.5t-103.5 414.5zM246 1495q14 43 97 43t142 -43l95 -270h-125zM348 559q0 -113 9.5 -186.5t41 -125.5t86.5 -52q57 0 89 52t41.5 124.5t9.5 185.5q0 84 -5.5 144.5 t-19.5 114.5t-43 83t-72 29q-80 0 -108.5 -97.5t-28.5 -271.5z" />
<glyph unicode="&#xf3;" horiz-adv-x="970" d="M82 553q0 256 103.5 413.5t300 157.5t300 -157.5t103.5 -413.5t-103.5 -414.5t-300 -158.5t-300 158.5t-103.5 414.5zM348 559q0 -113 9.5 -186.5t41 -125.5t86.5 -52q57 0 89 52t41.5 124.5t9.5 185.5q0 84 -5.5 144.5t-19.5 114.5t-43 83t-72 29q-80 0 -108.5 -97.5 t-28.5 -271.5zM397 1223l95 272q59 41 142 42t97 -42l-207 -272h-127z" />
<glyph unicode="&#xf4;" horiz-adv-x="970" d="M82 553q0 256 103.5 413.5t300 157.5t300 -157.5t103.5 -413.5t-103.5 -414.5t-300 -158.5t-300 158.5t-103.5 414.5zM227 1270l185 217q31 37 73 37q45 0 76 -37l184 -217l-69 -68l-189 148l-190 -148zM348 559q0 -113 9.5 -186.5t41 -125.5t86.5 -52q57 0 89 52 t41.5 124.5t9.5 185.5q0 84 -5.5 144.5t-19.5 114.5t-43 83t-72 29q-80 0 -108.5 -97.5t-28.5 -271.5z" />
<glyph unicode="&#xf5;" horiz-adv-x="970" d="M82 553q0 256 103.5 413.5t300 157.5t300 -157.5t103.5 -413.5t-103.5 -414.5t-300 -158.5t-300 158.5t-103.5 414.5zM190 1335q31 109 138 121q57 8 138 -38t122 -40q98 14 123 92l61 -137q-29 -94 -141 -108q-51 -8 -134 38t-128 40q-88 -14 -119 -93zM348 559 q0 -113 9.5 -186.5t41 -125.5t86.5 -52q57 0 89 52t41.5 124.5t9.5 185.5q0 84 -5.5 144.5t-19.5 114.5t-43 83t-72 29q-80 0 -108.5 -97.5t-28.5 -271.5z" />
<glyph unicode="&#xf6;" horiz-adv-x="970" d="M82 553q0 256 103.5 413.5t300 157.5t300 -157.5t103.5 -413.5t-103.5 -414.5t-300 -158.5t-300 158.5t-103.5 414.5zM203 1335q0 47 32.5 81t79.5 34t81 -34t34 -81t-34 -80.5t-81 -33.5t-79.5 33.5t-32.5 80.5zM348 559q0 -113 9.5 -186.5t41 -125.5t86.5 -52 q57 0 89 52t41.5 124.5t9.5 185.5q0 84 -5.5 144.5t-19.5 114.5t-43 83t-72 29q-80 0 -108.5 -97.5t-28.5 -271.5zM541 1335q0 47 33.5 81t80.5 34t80 -34t33 -81t-33 -80.5t-80 -33.5t-80.5 33.5t-33.5 80.5z" />
<glyph unicode="&#xf7;" d="M111 625v120h716v-120h-716zM338 379q0 55 39 94t92 39q55 0 93 -39t38 -94q0 -53 -38 -92t-93 -39q-53 0 -92 39t-39 92zM338 991q0 53 38 92t93 39q53 0 92 -39t39 -92t-39 -92t-92 -39q-55 0 -93 39t-38 92z" />
<glyph unicode="&#xf8;" horiz-adv-x="976" d="M84 -90l119 207q-119 162 -119 436q0 254 104.5 412.5t300.5 158.5q141 0 238 -86l113 197l53 -31l-123 -213q125 -154 125 -440q0 -252 -103.5 -411.5t-302.5 -159.5q-139 0 -243 90l-107 -191zM322 557q0 -133 22 -203l272 500q-47 96 -127 96q-98 0 -132.5 -105.5 t-34.5 -287.5zM365 266q43 -94 124 -94q96 0 132 102.5t36 282.5q0 139 -22 209z" />
<glyph unicode="&#xf9;" horiz-adv-x="989" d="M111 362v742h266v-772q0 -143 129 -144q59 0 106 27v889h269v-1038q-135 -86 -383 -86q-190 0 -288.5 90.5t-98.5 291.5zM266 1495q14 43 97 43t143 -43l94 -270h-123z" />
<glyph unicode="&#xfa;" horiz-adv-x="989" d="M111 362v742h266v-772q0 -143 129 -144q59 0 106 27v889h269v-1038q-135 -86 -383 -86q-190 0 -288.5 90.5t-98.5 291.5zM387 1223l94 272q59 41 143.5 42t96.5 -42l-207 -272h-127z" />
<glyph unicode="&#xfb;" horiz-adv-x="989" d="M111 362v742h266v-772q0 -143 129 -144q59 0 106 27v889h269v-1038q-135 -86 -383 -86q-190 0 -288.5 90.5t-98.5 291.5zM238 1270l184 217q31 37 74 37q45 0 75 -37l185 -217l-70 -68l-190 148l-191 -148z" />
<glyph unicode="&#xfc;" horiz-adv-x="989" d="M111 362v742h266v-772q0 -143 129 -144q59 0 106 27v889h269v-1038q-135 -86 -383 -86q-190 0 -288.5 90.5t-98.5 291.5zM211 1335q0 47 34 81t81 34t80.5 -34t33.5 -81t-33.5 -80.5t-80.5 -33.5t-81 33.5t-34 80.5zM551 1335q0 47 33.5 81t81 34t80 -34t32.5 -81 t-32.5 -80.5t-80 -33.5t-81 33.5t-33.5 80.5z" />
<glyph unicode="&#xfd;" horiz-adv-x="913" d="M41 1104h272l150 -748h4l164 748h243l-417 -1544h-269l158 440zM385 1223l94 272q59 41 142.5 42t97.5 -42l-207 -272h-127z" />
<glyph unicode="&#xfe;" horiz-adv-x="980" d="M106 -440v2048h267v-527q57 37 153 37q170 0 271.5 -145.5t101.5 -415.5q0 -262 -109.5 -415.5t-287.5 -153.5q-78 0 -127 20v-448h-269zM373 186q45 -10 63 -10q199 0 199 375q0 377 -176 377q-51 0 -86 -21v-721z" />
<glyph unicode="&#xff;" horiz-adv-x="913" d="M41 1104h272l150 -748h4l164 748h243l-417 -1544h-269l158 440zM186 1333q0 47 33 81t80 34t81 -34t34 -81t-34 -80.5t-81 -33.5t-80 33.5t-33 80.5zM524 1333q0 47 33 81t82 34q47 0 80 -34t33 -81t-33 -80.5t-80 -33.5q-49 0 -82 33.5t-33 80.5z" />
<glyph unicode="&#x152;" horiz-adv-x="1374" d="M88 704.5q0 317.5 126 521.5t370 204q100 0 159 -21h555v-235h-327v-340h284v-232h-284v-366h327v-236h-559q-49 -20 -155 -20q-244 0 -370 203.5t-126 521zM377 713q0 -92 10 -173t33.5 -157t67.5 -120t106 -44q70 0 102 21v942q-37 27 -102 26q-61 0 -105.5 -44 t-68 -119.5t-33.5 -157.5t-10 -174z" />
<glyph unicode="&#x153;" horiz-adv-x="1486" d="M82 549q0 256 101.5 415.5t285.5 159.5q190 0 281 -168q88 168 282.5 168t290.5 -163.5t82 -464.5l-526 -66q10 -131 72.5 -187.5t142.5 -56.5q150 0 233 58l55 -183q-117 -82 -319 -81q-215 0 -311 176q-88 -176 -279 -176q-186 0 -288.5 157.5t-102.5 411.5zM348 555 q0 -365 141 -365q45 0 74 30t43.5 86t19.5 113.5t5 135.5q0 170 -29 272.5t-113 102.5q-141 0 -141 -375zM862 604l289 35q4 139 -32 219t-107.5 80t-112.5 -94.5t-37 -239.5z" />
<glyph unicode="&#x178;" horiz-adv-x="907" d="M0 1407h293l174 -516h4l178 516h258l-315 -793v-614h-281v614zM182 1624q0 47 33 81t80 34t81 -34t34 -81t-34 -81t-81 -34t-80 34t-33 81zM520 1624q0 47 33 81t80 34t81 -34t34 -81t-34 -81t-81 -34t-80 34t-33 81z" />
<glyph unicode="&#x2c6;" horiz-adv-x="397" d="M-59 1270l184 217q31 37 74 37q41 0 73 -37l185 -217l-70 -68l-188 148l-191 -148z" />
<glyph unicode="&#x2dc;" horiz-adv-x="397" d="M-92 1335q27 109 135 121q57 8 138 -38t122 -40q96 12 125 92l61 -137q-29 -94 -141 -108q-53 -8 -136 38t-128 40q-88 -10 -117 -93z" />
<glyph unicode="&#x2000;" horiz-adv-x="919" />
<glyph unicode="&#x2001;" horiz-adv-x="1841" />
<glyph unicode="&#x2002;" horiz-adv-x="919" />
<glyph unicode="&#x2003;" horiz-adv-x="1841" />
<glyph unicode="&#x2004;" horiz-adv-x="612" />
<glyph unicode="&#x2005;" horiz-adv-x="458" />
<glyph unicode="&#x2006;" horiz-adv-x="305" />
<glyph unicode="&#x2007;" horiz-adv-x="305" />
<glyph unicode="&#x2008;" horiz-adv-x="229" />
<glyph unicode="&#x2009;" horiz-adv-x="366" />
<glyph unicode="&#x200a;" horiz-adv-x="100" />
<glyph unicode="&#x2010;" horiz-adv-x="618" d="M84 569v232h451v-232h-451z" />
<glyph unicode="&#x2011;" horiz-adv-x="618" d="M84 569v232h451v-232h-451z" />
<glyph unicode="&#x2012;" horiz-adv-x="618" d="M84 569v232h451v-232h-451z" />
<glyph unicode="&#x2013;" horiz-adv-x="716" d="M0 596v178h717v-176z" />
<glyph unicode="&#x2014;" horiz-adv-x="1433" d="M0 610v148h1434v-148h-1434z" />
<glyph unicode="&#x2018;" horiz-adv-x="579" d="M72 1040l278 568h170l-153 -564q-61 -94 -168 -94q-113 0 -127 90z" />
<glyph unicode="&#x2019;" horiz-adv-x="579" d="M59 963l156 563q59 94 166 94q113 0 127 -92l-277 -565h-172z" />
<glyph unicode="&#x201a;" horiz-adv-x="579" d="M59 -340l156 565q57 92 166 92q113 0 127 -92l-277 -565h-172z" />
<glyph unicode="&#x201c;" horiz-adv-x="1054" d="M104 1040l279 568h170l-154 -564q-61 -94 -168 -94q-113 0 -127 90zM514 1040l279 568h170l-154 -564q-61 -94 -168 -94q-113 0 -127 90z" />
<glyph unicode="&#x201d;" horiz-adv-x="1054" d="M92 963l156 563q59 94 166 94q113 0 127 -92l-277 -565h-172zM502 963l155 563q59 94 166 94q113 0 127 -92l-276 -565h-172z" />
<glyph unicode="&#x201e;" horiz-adv-x="1054" d="M92 -340l156 565q57 92 166 92q113 0 127 -92l-277 -565h-172zM502 -340l155 565q57 92 166 92q113 0 127 -92l-276 -565h-172z" />
<glyph unicode="&#x2022;" horiz-adv-x="778" d="M102 725q0 119 84 203t203 84t203 -84t84 -203t-84 -203t-203 -84t-203 84t-84 203z" />
<glyph unicode="&#x2026;" horiz-adv-x="1806" d="M133 151.5q0 69.5 49 118.5t119 49q72 0 120 -49t48 -118q0 -72 -49 -121t-119 -49t-119 50t-49 119.5zM735 151.5q0 69.5 49.5 118.5t118.5 49q72 0 120 -49t48 -118q0 -72 -49 -121t-118.5 -49t-119 50t-49.5 119.5zM1337 151.5q0 69.5 49.5 118.5t118.5 49 q72 0 120 -49t48 -118q0 -72 -49 -121t-118.5 -49t-119 50t-49.5 119.5z" />
<glyph unicode="&#x202f;" horiz-adv-x="366" />
<glyph unicode="&#x2039;" horiz-adv-x="552" d="M57 684q12 18 137 219t136 219l133 -121l-195 -317l195 -317l-133 -119q-10 18 -135.5 218t-137.5 218z" />
<glyph unicode="&#x203a;" horiz-adv-x="552" d="M90 367l197 317l-197 317l133 121q6 -12 135 -219t138 -219q-8 -12 -137.5 -218t-135.5 -218z" />
<glyph unicode="&#x205f;" horiz-adv-x="458" />
<glyph unicode="&#x2122;" horiz-adv-x="1374" d="M74 1307v102h442v-102h-160v-580h-120v580h-162zM537 727l86 682h153l129 -535l123 535h156l86 -682h-119l-55 555l-140 -555h-108l-141 553l-54 -553h-116z" />
<glyph unicode="&#xe000;" horiz-adv-x="1105" d="M0 1105h1105v-1105h-1105v1105z" />
<glyph unicode="&#xfb01;" horiz-adv-x="1064" d="M66 905v199h98v113q0 205 111.5 309t299.5 82v-197q-68 4 -106.5 -35t-38.5 -133v-139h145v-199h-145v-905h-266v905h-98zM674 1427.5q0 59.5 42 101.5t101.5 42t102.5 -42t43 -101.5t-43 -101.5t-102.5 -42t-101.5 42t-42 101.5zM684 0v1104h266v-1104h-266z" />
<glyph unicode="&#xfb02;" horiz-adv-x="1064" d="M66 905v199h98v113q0 205 111.5 309t299.5 82v-197q-68 4 -106.5 -35t-38.5 -133v-139h145v-199h-145v-905h-266v905h-98zM684 0v1608h266v-1608h-266z" />
<glyph unicode="&#xfb03;" horiz-adv-x="1748" d="M1357 1427.5q0 59.5 41 101.5t100.5 42t102.5 -42t43 -101.5t-43 -101.5t-102 -42q-57 0 -99.5 42t-42.5 101.5zM1368 0v1104h266v-1104h-266zM693 905v199h98v113q0 205 111 309q92 86 236 86q31 0 64 -4v-197h-12q-59 0 -94 -35q-39 -39 -39 -133v-139h145v-199h-145 v-905h-266v905h-98zM66 905v199h98v113q0 205 111 309q92 86 236 86q31 0 64 -4v-197h-12q-59 0 -94 -35q-39 -39 -39 -133v-139h145v-199h-145v-905h-266v905h-98z" />
<glyph unicode="&#xfb04;" horiz-adv-x="1751" d="M1368 0v1608h268v-1608h-268zM693 905v199h98v113q0 205 111 309q92 86 236 86q31 0 64 -4v-197h-12q-59 0 -94 -35q-39 -39 -39 -133v-139h145v-199h-145v-905h-266v905h-98zM66 905v199h98v113q0 205 111 309q92 86 236 86q31 0 64 -4v-197h-12q-59 0 -94 -35 q-39 -39 -39 -133v-139h145v-199h-145v-905h-266v905h-98z" />
</font>
</defs>
</svg>
