<?xml version="1.0" standalone="no"?>
<!DOCTYPE svg PUBLIC "-//W3C//DTD SVG 1.1//EN" "http://www.w3.org/Graphics/SVG/1.1/DTD/svg11.dtd" >
<svg xmlns="http://www.w3.org/2000/svg">
<metadata>
This is a custom SVG webfont generated by Font Squirrel.
Copyright   :  Hans Reichel 1995 Published by FontShop International FontFont release 16 Update V11 with hand edited bitmaps
</metadata>
<defs>
<font id="DaxCondensedRegular" horiz-adv-x="921" >
<font-face units-per-em="2048" ascent="1638" descent="-410" />
<missing-glyph horiz-adv-x="542" />
<glyph unicode=" "  horiz-adv-x="542" />
<glyph unicode="&#x09;" horiz-adv-x="542" />
<glyph unicode="&#xa0;" horiz-adv-x="542" />
<glyph unicode="!" horiz-adv-x="561" d="M184 104q0 51 35 86t84 35q51 0 85 -34.5t34 -86.5q0 -49 -35 -84.5t-84 -35.5q-47 0 -83 35.5t-36 84.5zM195 1409h219l-45 -950h-129z" />
<glyph unicode="&#x22;" horiz-adv-x="737" d="M154 1376q27 49 86 49t86 -49l-47 -504h-80zM446 1376q29 49 86 49t84 -49l-45 -504h-79z" />
<glyph unicode="#" d="M20 479v101h199l43 284h-182v101h199l67 444h100l-67 -444h219l68 444h100l-68 -442h185v-101h-201l-43 -286h184v-101h-200l-72 -479h-100l71 479h-217l-76 -479h-98l72 479h-183zM319 580h220l43 286h-217z" />
<glyph unicode="$" d="M123 61l47 146q88 -70 215 -70q90 0 148.5 55.5t58.5 147.5q0 94 -48 162.5t-169 165.5q-238 193 -238 399q0 145 80 242.5t207 115.5l-18 228h120l-18 -223q143 -8 223 -82l-41 -127q-74 66 -190 65q-84 0 -135.5 -53t-51.5 -146q0 -88 45 -152.5t164 -158.5 q131 -102 194.5 -196.5t63.5 -217.5q0 -156 -85 -258t-226 -120l20 -238h-127l21 234q-164 5 -260 81z" />
<glyph unicode="%" horiz-adv-x="1437" d="M102 948.5q0 483.5 233.5 483.5t233.5 -483.5t-233.5 -483.5t-233.5 483.5zM213 948q0 -387 123 -387t123 387q0 401 -123 401t-123 -401zM471 12l401 1409l91 -24l-402 -1409zM866 463q0 481 236 481q233 0 233 -481q0 -90 -9 -168t-32.5 -153.5t-73 -120t-118.5 -44.5 q-72 0 -121 44.5t-72.5 120t-33 153.5t-9.5 168zM979 463q0 -389 123 -389t123 389q6 399 -123 399q-123 0 -123 -399z" />
<glyph unicode="&#x26;" horiz-adv-x="1077" d="M102 387q0 143 80 246.5t205 157.5v4q-211 86 -211 307q0 139 87 233.5t245 94.5q164 0 256 -82l-51 -115q-78 61 -174 61q-88 0 -139.5 -52t-51.5 -150q0 -96 62.5 -157t152.5 -61q197 0 451 162l53 -123q-70 -45 -199 -79l2 -773q-96 -82 -323 -81q-199 0 -322 109.5 t-123 297.5zM285 403q0 -133 70.5 -216t197.5 -83q94 0 147 29v655q-229 -63 -322 -147t-93 -238z" />
<glyph unicode="'" horiz-adv-x="473" d="M154 1376q37 49 98 49q68 0 100 -49l-53 -504h-92z" />
<glyph unicode="(" horiz-adv-x="636" d="M113 586q0 262 90 507.5t291 540.5l92 -57q-293 -481 -293 -991q0 -508 293 -994l-92 -57q-201 293 -291 541t-90 510z" />
<glyph unicode=")" horiz-adv-x="636" d="M51 -408q291 481 291 994q0 514 -291 991l92 57q201 -295 291 -541.5t90 -506.5q0 -262 -90 -509t-291 -542z" />
<glyph unicode="*" horiz-adv-x="792" d="M119 1393q0 35 23.5 58.5t58.5 23.5q33 0 56.5 -24t23.5 -58q0 -33 -24 -56.5t-56.5 -23.5t-57 23.5t-24.5 56.5zM201 1141q0 35 23.5 58.5t56.5 23.5q35 0 58 -23.5t23 -58.5q0 -33 -23.5 -56.5t-57.5 -23.5q-33 0 -56.5 23.5t-23.5 56.5zM334 1550q0 33 23.5 56.5 t56 23.5t57.5 -23.5t25 -56.5q0 -35 -25 -58.5t-57.5 -23.5t-56 23.5t-23.5 58.5zM350 1323q0 27 18.5 45t45 18t45 -18t18.5 -45t-18.5 -44t-45 -17t-45 17t-18.5 44zM465 1141q0 35 23.5 58.5t58.5 23.5q33 0 56.5 -23.5t23.5 -58.5q0 -33 -23.5 -56.5t-56.5 -23.5 q-35 0 -58.5 23.5t-23.5 56.5zM547 1393q0 35 23.5 58.5t58.5 23.5t58.5 -24t23.5 -58q0 -33 -24.5 -56.5t-57.5 -23.5t-57.5 23.5t-24.5 56.5z" />
<glyph unicode="+" d="M121 625v123h276v356h123v-356h281v-123h-279v-357h-123v357h-278z" />
<glyph unicode="," horiz-adv-x="479" d="M8 -352l154 514q39 68 123 67q76 0 82 -65l-256 -516h-103z" />
<glyph unicode="-" horiz-adv-x="606" d="M100 604v160h406v-160h-406z" />
<glyph unicode="." horiz-adv-x="462" d="M111 108.5q0 49.5 35.5 85t82.5 35.5q49 0 85 -34.5t36 -83.5q0 -51 -34.5 -86t-84 -35t-85 34.5t-35.5 84z" />
<glyph unicode="/" horiz-adv-x="995" d="M31 -416l819 2044l113 -45l-820 -2044z" />
<glyph unicode="0" d="M96 705q0 725 364.5 725t364.5 -725t-364.5 -725t-364.5 725zM264 702q0 -289 40 -435t157 -146t155.5 146.5t38.5 434.5q0 295 -38.5 446.5t-155.5 151.5t-157 -153.5t-40 -444.5z" />
<glyph unicode="1" d="M133 1190q131 18 234.5 80.5t138.5 138.5h121v-1409h-174v1159q-109 -53 -306 -67z" />
<glyph unicode="2" d="M66 0l434 723q104 174 104 309q0 111 -61.5 179.5t-175.5 68.5q-111 0 -191 -55l-53 123q119 82 295 82q166 0 266 -103.5t100 -277.5q0 -158 -145 -385l-322 -506h471v-158h-722z" />
<glyph unicode="3" d="M80 61l53 132q76 -63 227 -64q109 0 178.5 81t69.5 202q0 139 -89 222t-243 85v106q135 10 217 78t82 176q0 88 -56 147.5t-148 59.5q-109 0 -189 -55l-53 115q106 84 283 84q156 0 244.5 -93.5t88.5 -234.5q0 -207 -186 -303v-4q90 -39 158.5 -134.5t68.5 -244.5 q0 -180 -113.5 -308t-281.5 -128q-205 -1 -311 81z" />
<glyph unicode="4" d="M96 313v133l477 963h156v-969h96v-127h-96v-313h-162v313h-471zM219 440h346v576l4 141h-4q-27 -70 -63 -143z" />
<glyph unicode="5" d="M88 61l51 132q84 -66 232 -66q100 0 171.5 85t71.5 198q0 174 -109.5 261t-350.5 36l49 702h561v-158h-436l-27 -409q231 31 360.5 -89t129.5 -339q0 -178 -114 -306t-282 -128q-198 -1 -307 81z" />
<glyph unicode="6" d="M96 512q0 186 51.5 344t121 253t159.5 168t149.5 102.5t108.5 43.5l47 -127q-57 -23 -113.5 -57.5t-118 -89.5t-113.5 -139t-83 -187q66 27 150 27q178 0 275 -119t97 -313q0 -178 -93 -308t-267 -130q-176 0 -273.5 141t-97.5 391zM264 510q0 -190 52.5 -292.5 t152.5 -102.5q94 0 142 86t48 217q0 143 -60 227t-181 84q-84 0 -142 -22q-12 -74 -12 -197z" />
<glyph unicode="7" d="M109 1251v158h749l-168 -451q-223 -600 -297 -958h-215l465 1251h-534z" />
<glyph unicode="8" d="M96 338q0 123 60.5 212t191.5 193q-117 100 -165 178t-48 189q0 139 94.5 229.5t229.5 90.5t231 -90.5t96 -229.5q0 -104 -52 -181t-175 -175q139 -115 202.5 -204t63.5 -214q0 -158 -106.5 -257t-260 -99t-258 98t-104.5 260zM252 342q0 -96 57.5 -160.5t147.5 -64.5 q88 0 146.5 62.5t58.5 158.5q0 90 -49.5 160.5t-163.5 160.5q-104 -82 -150.5 -153.5t-46.5 -163.5zM287 1110q0 -72 37.5 -133.5t132.5 -142.5q100 80 140 140t40 138q0 80 -51 136.5t-125 56.5q-76 0 -125 -55.5t-49 -139.5z" />
<glyph unicode="9" d="M96 991q0 180 92.5 309.5t266.5 129.5q176 0 274 -143.5t98 -391.5q0 -186 -51 -344t-121.5 -252t-161 -168t-150.5 -103.5t-110 -43.5l-43 129q129 49 249 165.5t177 305.5q-66 -27 -149 -27q-174 0 -272.5 119.5t-98.5 314.5zM264 989q0 -145 60.5 -228t179.5 -83 q78 0 141 22q14 88 14 197q0 190 -53 294.5t-153 104.5q-96 0 -142.5 -87t-46.5 -220z" />
<glyph unicode=":" horiz-adv-x="460" d="M111 104q0 51 34.5 87t83.5 36q51 0 85 -34.5t34 -88.5q0 -49 -34.5 -84.5t-84.5 -35.5q-47 0 -82.5 35.5t-35.5 84.5zM111 735q0 51 34.5 86t83.5 35q51 0 85 -35t34 -86q0 -49 -34.5 -85t-84.5 -36q-47 0 -82.5 36t-35.5 85z" />
<glyph unicode=";" horiz-adv-x="479" d="M8 -352l154 514q39 68 123 67q76 0 82 -65l-256 -516h-103zM129 735q0 51 35 87t84 36t84 -36t35 -87q0 -49 -35 -85t-84 -36t-84 36t-35 85z" />
<glyph unicode="&#x3c;" d="M121 621v127l680 292v-139l-563 -217l563 -217v-139z" />
<glyph unicode="=" d="M121 453v120h680v-120h-680zM121 795v123h680v-123h-680z" />
<glyph unicode="&#x3e;" d="M121 328v139l561 217l-561 217v139l680 -290v-129z" />
<glyph unicode="?" horiz-adv-x="782" d="M104 1346q111 84 265 84q156 0 247 -92.5t91 -243.5q0 -119 -78 -202t-164 -116l-16 -319h-130l-20 379q88 18 158.5 84.5t70.5 162.5q0 80 -48 139.5t-138 59.5q-102 0 -182 -57zM264 102.5q0 49.5 36 85t83 35.5q51 0 86 -34.5t35 -86.5q0 -49 -35 -83.5t-86 -34.5 q-47 0 -83 34.5t-36 84z" />
<glyph unicode="@" horiz-adv-x="1492" d="M113 451q0 258 101 483t276.5 360.5t381.5 135.5q219 0 354.5 -158t135.5 -432q0 -98 -24.5 -218t-68.5 -234t-118 -189.5t-162 -75.5q-125 0 -131 186q-57 -92 -114.5 -137t-135.5 -45q-100 0 -152.5 94t-52.5 230q0 117 38 242.5t120 224t187 98.5q74 0 109.5 -40 t78.5 -142l27 147h98l-55 -303q-43 -215 -45 -330q0 -76 12 -100.5t49 -24.5q76 0 139.5 126t92 265.5t28.5 225.5q0 231 -113.5 369.5t-300.5 138.5q-188 0 -343.5 -129t-241.5 -335t-86 -435q0 -293 153.5 -468.5t392.5 -175.5q94 0 178.5 24t135.5 50.5t107.5 78.5 t76 75.5t57.5 72.5l45 -65q-51 -63 -78.5 -95t-86 -84t-112.5 -78t-139 -46.5t-184 -20.5q-276 0 -453 198t-177 536zM516 457q0 -98 34 -163t101 -65q76 0 135.5 82t86 182.5t28.5 188.5q2 111 -42 172t-103 61q-78 0 -135.5 -82.5t-81 -184t-23.5 -191.5z" />
<glyph unicode="A" horiz-adv-x="1021" d="M31 0l405 1409h154l399 -1409h-184l-107 412h-393l-108 -412h-166zM338 539h330l-117 462l-45 197h-2q-20 -98 -45 -197z" />
<glyph unicode="B" horiz-adv-x="1005" d="M143 61v1287q115 82 318 82q186 0 296.5 -98.5t110.5 -262.5q0 -127 -63.5 -207t-153.5 -110v-4q100 -29 181 -117t81 -244q0 -205 -124.5 -306t-313.5 -101q-211 -1 -332 81zM317 137q59 -25 152 -24q121 0 191.5 69.5t70.5 204.5q0 158 -82 227.5t-276 69.5h-56v-547z M317 795h54q170 0 245.5 57t75.5 203q0 250 -231 250q-86 0 -144 -23v-487z" />
<glyph unicode="C" horiz-adv-x="860" d="M106 705q0 197 51.5 358.5t157 264t246.5 102.5q152 0 244 -82l-43 -119q-72 55 -174 55q-150 0 -221.5 -167t-71.5 -412q0 -238 73.5 -405t217.5 -167q109 0 178 57l43 -129q-78 -82 -252 -81q-211 0 -330 204t-119 521z" />
<glyph unicode="D" horiz-adv-x="1069" d="M143 61v1287q117 82 318 82q246 0 373 -189.5t127 -521.5q0 -338 -123 -538.5t-371 -200.5q-226 -1 -324 81zM324 147q49 -23 135 -22q166 0 241.5 148.5t75.5 447.5q0 573 -321 573q-86 0 -131 -22v-1125z" />
<glyph unicode="E" horiz-adv-x="796" d="M143 0v1409h570v-141h-389v-471h350v-140h-350v-516h389v-141h-570z" />
<glyph unicode="F" horiz-adv-x="776" d="M143 0v1409h570v-141h-389v-471h350v-140h-350v-657h-181z" />
<glyph unicode="G" horiz-adv-x="1054" d="M106 713q0 336 144.5 526.5t361.5 190.5q195 0 293 -82l-53 -125q-82 61 -223 61q-154 0 -246 -149q-90 -146 -90 -422v-13q0 -248 81 -412.5t226 -164.5q102 0 148 24v512h-193v138h371v-736q-119 -82 -320 -81q-219 0 -359.5 189.5t-140.5 543.5z" />
<glyph unicode="H" horiz-adv-x="1067" d="M143 0v1409h181v-614h415v614h185v-1409h-185v657h-415v-657h-181z" />
<glyph unicode="I" horiz-adv-x="475" d="M150 0v1409h182v-1409h-182z" />
<glyph unicode="J" horiz-adv-x="483" d="M-55 -317q84 23 147.5 124t63.5 244v1358h184v-1346q0 -215 -120 -358t-275 -162v140z" />
<glyph unicode="K" horiz-adv-x="946" d="M150 0v1409h178v-661h4l383 661h178l-397 -659l426 -750h-203l-387 733h-4v-733h-178z" />
<glyph unicode="L" horiz-adv-x="727" d="M150 0v1409h182v-1268h354v-141h-536z" />
<glyph unicode="M" horiz-adv-x="1359" d="M90 0l137 1409h187l229 -954l35 -172h4q14 82 35 170l229 956h187l137 -1409h-170l-84 1010l-6 159h-4q-16 -84 -35 -159l-240 -1010h-113l-241 1008l-35 161h-4q0 -90 -6 -159l-80 -1010h-162z" />
<glyph unicode="N" horiz-adv-x="1136" d="M143 0v1409h185l460 -963l60 -135h4q-4 74 -4 142v956h149v-1409h-153l-494 1026l-59 137h-4q4 -74 4 -135v-1028h-148z" />
<glyph unicode="O" horiz-adv-x="1093" d="M106 704.5q0 206.5 42 364.5t144.5 259.5t254 101.5t254 -101.5t144.5 -259.5t42 -364.5t-42 -364.5t-144.5 -259t-254 -101t-254 101t-144.5 259t-42 364.5zM291 709q0 -575 256 -575.5t256 575.5q0 117 -12.5 213t-39 182t-78.5 135t-126 49t-126 -49t-79 -135 t-39 -182t-12 -213z" />
<glyph unicode="P" d="M143 0v1348q119 82 306 82q205 0 308 -116t103 -317q0 -203 -124 -317q-110 -102 -323 -102q-27 0 -55 2l-36 2v-582h-179zM322 711l36 -2q18 -1 36 -1q290 0 290 293q0 301 -244 302q-80 0 -118 -21v-571z" />
<glyph unicode="Q" horiz-adv-x="1093" d="M106 704.5q0 206.5 42 364.5t144.5 259.5t254.5 101.5q154 0 255 -101.5t143 -259.5t42 -364q0 -485 -221 -658l182 -256l-145 -139l-144 344q-51 -16 -112 -16q-152 0 -254.5 101t-144.5 259t-42 364.5zM291 711q0 -580 256 -580q258 0 258 580q0 578 -258 577 q-256 1 -256 -577z" />
<glyph unicode="R" horiz-adv-x="962" d="M143 0v1348q109 82 303 82q207 0 310.5 -113t103.5 -318q0 -145 -97 -251.5t-228 -116.5v-4l368 -627h-203l-374 672h-4v-672h-179zM319 711q20 -6 43 -6q133 0 227.5 68.5t94.5 221.5q0 156 -57.5 234t-184.5 78q-70 0 -123 -25v-571z" />
<glyph unicode="S" horiz-adv-x="825" d="M78 61l49 146q82 -70 215 -70q90 0 148.5 55.5t58.5 147.5q0 94 -48 162.5t-169 165.5q-121 98 -180.5 192t-59.5 207q0 162 98.5 262.5t245.5 100.5q164 0 250 -82l-39 -127q-78 66 -192 65q-84 0 -134.5 -53t-50.5 -146q0 -88 45 -153.5t162 -157.5 q131 -104 195.5 -197.5t64.5 -216.5q0 -172 -102.5 -277t-267.5 -105q-185 -1 -289 81z" />
<glyph unicode="T" horiz-adv-x="733" d="M41 1268v141h651v-141h-235v-1268h-181v1268h-235z" />
<glyph unicode="U" horiz-adv-x="1046" d="M143 393v1016h181v-1040q0 -104 57 -168t149.5 -64t150.5 63.5t58 168.5v1040h164v-1018q0 -190 -106.5 -302t-274.5 -112q-166 0 -272.5 113t-106.5 303z" />
<glyph unicode="V" horiz-adv-x="937" d="M45 1409h186l213 -991l25 -160h4q14 86 31 160l219 991h170l-346 -1409h-156z" />
<glyph unicode="W" horiz-adv-x="1404" d="M51 1409h182l166 -977l19 -160h4q10 80 27 160l198 977h127l197 -975l24 -162h2q12 86 25 162l170 975h160l-279 -1409h-153l-187 903l-24 168h-4q-12 -84 -31 -170l-191 -901h-153z" />
<glyph unicode="X" horiz-adv-x="890" d="M25 0l329 723l-293 686h191l199 -514h4l213 514h166l-295 -661l329 -748h-202l-224 563l-2 2l-235 -565h-180z" />
<glyph unicode="Y" horiz-adv-x="880" d="M23 1409h194l229 -610h5l235 610h172l-328 -778v-631h-180v631z" />
<glyph unicode="Z" horiz-adv-x="792" d="M51 0l438 1268h-407v141h639l-430 -1268h434v-141h-674z" />
<glyph unicode="[" horiz-adv-x="595" d="M143 -440v2048h385v-117h-233v-1815h233v-116h-385z" />
<glyph unicode="\" horiz-adv-x="1003" d="M39 1581l113 47l819 -2044l-113 -45z" />
<glyph unicode="]" horiz-adv-x="595" d="M68 -324h231v1815h-231v117h385v-2048h-385v116z" />
<glyph unicode="^" horiz-adv-x="935" d="M127 987l256 385q37 53 86 53t84 -53l256 -385l-61 -76l-279 363l-279 -363z" />
<glyph unicode="_" d="M-20 -287h962v-133h-962v133z" />
<glyph unicode="`" horiz-adv-x="342" d="M-20 1501q10 35 66 35t101 -35l115 -274h-84z" />
<glyph unicode="a" horiz-adv-x="884" d="M86 311q0 106 40 183t114.5 122.5t159.5 70t198 38.5v53q0 215 -192 215q-119 0 -224 -65l-39 114q123 82 287 82q145 0 237.5 -86t92.5 -276v-701q-123 -82 -316 -81q-176 0 -267 88.5t-91 242.5zM248 313q0 -106 54 -161.5t155 -55.5q86 0 139 31l2 487 q-184 -29 -267 -92.5t-83 -208.5z" />
<glyph unicode="b" horiz-adv-x="931" d="M125 61v1547h170v-533q61 43 176 43q164 0 263.5 -147.5t99.5 -395.5q0 -274 -109 -434.5t-315 -160.5q-185 -1 -285 81zM295 131q49 -23 119 -22q252 0 252 458q0 190 -58.5 312t-173.5 122q-82 0 -139 -36v-834z" />
<glyph unicode="c" horiz-adv-x="735" d="M96 553q0 268 100.5 419.5t264.5 151.5q145 0 217 -82l-37 -110q-57 57 -149 57q-113 0 -167.5 -116.5t-54.5 -313.5t57.5 -315.5t159.5 -118.5q98 0 152 57l41 -121q-70 -82 -223 -81q-166 0 -263.5 151.5t-97.5 421.5z" />
<glyph unicode="d" horiz-adv-x="931" d="M96 539q0 270 114 424.5t296 154.5q66 0 131 -20v510h170v-1547q-106 -82 -297 -81q-201 0 -307.5 148.5t-106.5 410.5zM266 553q0 -442 252 -442q84 0 119 22v850q-57 16 -100 16q-98 0 -161 -66.5t-86.5 -161.5t-23.5 -218z" />
<glyph unicode="e" horiz-adv-x="929" d="M96 555q0 270 104.5 419.5t276.5 149.5q178 0 273 -144q88 -136 88 -391v-34l-576 -70q8 -178 78 -271t190 -93q143 0 234 67l43 -127q-104 -82 -289 -81q-195 0 -308.5 145t-113.5 430zM256 600l408 53q-6 338 -191 338q-94 0 -155.5 -104.5t-61.5 -286.5z" />
<glyph unicode="f" horiz-adv-x="563" d="M80 981v123h98v147q0 172 88 267q84 90 233 90h13v-129q-74 0 -120 -48.5t-46 -156.5v-170h166v-123h-166v-981h-168v981h-98z" />
<glyph unicode="g" horiz-adv-x="931" d="M96 528q0 274 110.5 435t319.5 161q180 0 281 -82v-1060q0 -209 -97.5 -326t-267.5 -117q-193 0 -299 82l54 127q88 -66 219 -65q115 0 169 76.5t54 203.5v68q-66 -49 -180 -49q-164 0 -263.5 148t-99.5 398zM266 535q0 -193 60.5 -312t169.5 -119q74 0 143 39v828 q-45 25 -123 24q-250 1 -250 -460z" />
<glyph unicode="h" horiz-adv-x="935" d="M125 0v1608h170v-543q98 59 203 59q143 0 228 -84t85 -245v-795h-170v795q0 96 -48 149t-126 53q-94 0 -172 -49v-948h-170z" />
<glyph unicode="i" horiz-adv-x="440" d="M119 1419q0 43 29.5 72t70.5 29t70.5 -29t29.5 -72q0 -41 -29.5 -70.5t-70.5 -29.5t-70.5 29.5t-29.5 70.5zM133 0v1104h172v-1104h-172z" />
<glyph unicode="j" horiz-adv-x="434" d="M-41 -326q170 68 170 381v1049h170v-1038q0 -229 -101.5 -368.5t-238.5 -154.5v131zM115 1419q0 43 29.5 72t70.5 29t70.5 -29t29.5 -72q0 -41 -29.5 -70.5t-70.5 -29.5t-70.5 29.5t-29.5 70.5z" />
<glyph unicode="k" horiz-adv-x="868" d="M131 0v1608h168v-1016h4l361 512h170l-373 -512l399 -592h-188l-369 582h-4v-582h-168z" />
<glyph unicode="l" horiz-adv-x="444" d="M137 0v1608h170v-1608h-170z" />
<glyph unicode="m" horiz-adv-x="1452" d="M125 0v1042q131 82 329.5 82t284.5 -120q109 121 289 120q129 0 214 -86t85 -239v-799h-172v799q0 92 -45 144t-125 52q-104 0 -174 -86v-909h-170v797q0 88 -52 144t-138 56q-90 0 -156 -30v-967h-170z" />
<glyph unicode="n" horiz-adv-x="935" d="M125 0v1042q135 82 348 82q338 0 338 -325v-799h-170v799q0 199 -182 198q-90 0 -164 -32v-965h-170z" />
<glyph unicode="o" horiz-adv-x="931" d="M96 551q0 258 91.5 415.5t277.5 157.5t277.5 -157.5t91.5 -415.5q0 -256 -91.5 -413.5t-275.5 -157.5q-186 0 -278.5 158.5t-92.5 412.5zM268 553q0 -436 199 -436q197 0 197 436q0 449 -197 448q-199 1 -199 -448z" />
<glyph unicode="p" horiz-adv-x="931" d="M125 -440v1482q117 82 297 82q201 0 307.5 -148.5t106.5 -410.5q0 -270 -114 -426.5t-296 -156.5q-57 0 -129 22v-444h-172zM295 123q59 -18 100 -19q98 0 160.5 70t86.5 165t24 216q0 201 -60.5 323.5t-189.5 122.5q-78 0 -121 -26v-852z" />
<glyph unicode="q" horiz-adv-x="931" d="M96 528q0 272 111.5 434t316.5 162q184 0 283 -82v-1482h-170v469q-59 -47 -178 -47q-166 0 -264.5 147t-98.5 399zM266 535q0 -193 60.5 -311t171.5 -118q76 0 139 37v830q-49 23 -119 22q-252 1 -252 -460z" />
<glyph unicode="r" horiz-adv-x="575" d="M125 0v1042q78 47 166 66q79 17 223 17q16 0 33 -1l-41 -151q-51 21 -98 21q-59 0 -113 -33v-961h-170z" />
<glyph unicode="s" horiz-adv-x="720" d="M70 61l45 132q70 -70 188 -70q68 0 113 42t45 109q0 78 -35 123t-123 109q-215 160 -215 328q0 125 79 207.5t202 82.5q150 0 237 -82l-45 -114q-68 63 -168 63q-57 0 -96 -42t-39 -99q0 -70 41 -118t129 -111q70 -51 110 -89t71.5 -105t31.5 -146q0 -129 -92 -215 t-225 -86q-170 -1 -254 81z" />
<glyph unicode="t" horiz-adv-x="571" d="M80 981v123h98v254l168 63v-317h166v-123h-166v-698q0 -158 113 -158q20 0 53 8v-125q-33 -16 -96 -16q-109 0 -173.5 71.5t-64.5 206.5v711h-98z" />
<glyph unicode="u" horiz-adv-x="925" d="M125 342v762h172v-782q0 -102 47 -155.5t131 -53.5q88 0 156 43v948h170v-1034q-127 -92 -336 -93q-340 0 -340 365z" />
<glyph unicode="v" horiz-adv-x="874" d="M55 1104h176l209 -858h2l217 858h160l-309 -1104h-145z" />
<glyph unicode="w" horiz-adv-x="1351" d="M66 1104h170l174 -860h4l202 860h136l194 -860h6l178 860h158l-274 -1104h-137l-197 834h-4l-207 -834h-135z" />
<glyph unicode="x" horiz-adv-x="841" d="M45 0l289 563l-258 541h176l172 -393h4l184 393h156l-262 -516l291 -588h-185l-192 430h-4l-201 -430h-170z" />
<glyph unicode="y" horiz-adv-x="876" d="M55 1104h178l193 -877h6l227 877h162l-454 -1544h-174l159 440z" />
<glyph unicode="z" horiz-adv-x="727" d="M49 0l391 981h-358v123h580l-386 -979h392v-125h-619z" />
<glyph unicode="{" horiz-adv-x="669" d="M96 616v117q68 0 100.5 52.5t32.5 187.5v327q0 158 94.5 233t249.5 75v-109q-190 0 -190 -207v-370q0 -207 -154 -246v-4q154 -35 154 -246v-373q0 -207 190 -207v-110q-344 0 -344 309v328q0 137 -32.5 190t-100.5 53z" />
<glyph unicode="|" horiz-adv-x="413" d="M139 -440v2048h135v-2048h-135z" />
<glyph unicode="}" horiz-adv-x="669" d="M96 -154q190 0 191 207v373q0 211 153 246v4q-154 39 -153 246v370q0 207 -191 207v109q156 0 250 -75t94 -233v-327q0 -135 33 -187.5t100 -52.5v-117q-68 0 -100.5 -53t-32.5 -190v-328q0 -309 -344 -309v110z" />
<glyph unicode="~" horiz-adv-x="1056" d="M160 647q47 150 178 168q63 10 124.5 -21.5t117 -63.5t104.5 -23q106 18 139 131l74 -111q-37 -139 -184 -164q-70 -12 -177.5 54.5t-168.5 56.5q-98 -14 -140 -131z" />
<glyph unicode="&#xa1;" horiz-adv-x="561" d="M184 866q0 49 36 84t83 35q51 0 85 -35t34 -84q0 -51 -34 -86t-85 -35q-49 0 -84 35t-35 86zM195 -440l45 952h129l45 -952h-219z" />
<glyph unicode="&#xa2;" d="M150 688q0 209 71.5 337t196.5 151l-15 196h117l-12 -192q102 -12 156 -76l-37 -111q-49 53 -133 54q-174 0 -175 -353q0 -166 46.5 -264t128.5 -98q78 0 133 55l39 -123q-51 -63 -160 -71l14 -193h-119l13 195q-125 27 -194.5 155.5t-69.5 337.5z" />
<glyph unicode="&#xa3;" d="M96 670v118h140q-37 158 -37 265q0 170 97 273.5t263 103.5q178 0 264 -82l-49 -121q-74 55 -190 55q-111 0 -163 -77t-52 -201q0 -121 24 -216h230v-118h-211q14 -100 14 -172q0 -180 -94 -340h504v-158h-732q72 102 122 233.5t50 258.5q0 96 -16 178h-164z" />
<glyph unicode="&#xa4;" d="M51 346l90 100q-86 106 -86 268.5t86 268.5l-90 100l70 76l92 -96q104 92 248 92q141 0 250 -92l90 96l69 -76l-90 -100q86 -106 86 -268t-86 -269l90 -100l-69 -76l-90 97q-109 -92 -250 -93q-143 0 -248 93l-92 -97zM172 715q0 -133 83 -229.5t206 -96.5 q125 0 207 95.5t82 230.5t-82 230t-207 95t-207 -95t-82 -230z" />
<glyph unicode="&#xa5;" d="M53 1409h195l219 -629h4l229 629h166l-213 -510l176 14v-88l-198 15l-88 -207l286 14v-90l-282 14v-571h-172v571l-285 -14v90l291 -14l-90 207l-201 -15v88l178 -14z" />
<glyph unicode="&#xa6;" horiz-adv-x="411" d="M139 -358v716h133v-716h-133zM139 666v716h133v-716h-133z" />
<glyph unicode="&#xa7;" d="M133 555q0 203 186 346q-37 45 -55 75t-33.5 77t-15.5 102q0 121 78 198t199 77q152 0 233 -82l-47 -113q-59 59 -162 59q-68 0 -102.5 -40t-34.5 -101q0 -98 117 -215l139 -139q90 -90 128 -171t38 -182q0 -104 -61.5 -198t-139.5 -150q66 -68 93.5 -130t27.5 -146 q0 -119 -83 -201t-202 -82q-170 0 -256 82l49 129q68 -68 177 -67q57 0 99 39.5t42 91.5q0 68 -16.5 109.5t-73.5 99.5l-176 176q-148 147 -148 356zM270 580q0 -147 107 -254l137 -140q47 33 91 98.5t44 135.5q0 80 -21.5 135t-80.5 117l-146 147q-47 -33 -89 -96t-42 -143 z" />
<glyph unicode="&#xa8;" horiz-adv-x="342" d="M-68 1333q0 35 26 61.5t60 26.5q37 0 64 -26.5t27 -61.5q0 -37 -27 -63.5t-64 -26.5q-35 0 -60.5 26.5t-25.5 63.5zM233 1333q0 35 27 61.5t62 26.5q37 0 62.5 -26.5t25.5 -61.5q0 -37 -26 -63.5t-62 -26.5q-35 0 -62 26.5t-27 63.5z" />
<glyph unicode="&#xa9;" horiz-adv-x="1665" d="M109 702q0 299 211.5 511t510.5 212t512 -212t213 -511t-213 -509.5t-512 -210.5t-510.5 210.5t-211.5 509.5zM188 702.5q0 -266.5 188.5 -454t455 -187.5t455 187.5t188.5 454t-188.5 455t-455 188.5t-455 -188.5t-188.5 -455zM401 707q0 180 128 308t309 128 q203 0 333 -158l-73 -63q-102 123 -260 122q-139 0 -238.5 -98t-99.5 -239q0 -139 99 -237.5t239 -98.5q158 0 258 121l75 -62q-135 -158 -333 -158q-180 0 -308.5 128.5t-128.5 306.5z" />
<glyph unicode="&#xaa;" horiz-adv-x="604" d="M70 932q0 121 94 175t258 73v32q0 129 -133 129q-76 0 -154 -41l-26 70q80 49 196 49q227 0 227 -217v-420q-78 -49 -217 -49q-121 0 -183 53.5t-62 145.5zM180 934q0 -131 146 -131q59 0 96 18v291q-127 -16 -184.5 -54t-57.5 -124z" />
<glyph unicode="&#xab;" horiz-adv-x="940" d="M123 684q16 25 135 216.5t135 215.5l84 -76l-215 -356l215 -356l-84 -76q-6 10 -270 432zM436 684q14 25 135 216.5t136 215.5l86 -76l-218 -356l218 -356l-86 -76q-7 10 -271 432z" />
<glyph unicode="&#xac;" d="M121 623v125h680v-453h-125v330z" />
<glyph unicode="&#xad;" horiz-adv-x="606" d="M100 604v160h406v-160h-406z" />
<glyph unicode="&#xae;" horiz-adv-x="1665" d="M109 702q0 299 211.5 511t510.5 212t512 -212t213 -511t-213 -509.5t-512 -210.5t-510.5 210.5t-211.5 509.5zM188 702.5q0 -266.5 188.5 -454t455 -187.5t455 187.5t188.5 454t-188.5 455t-455 188.5t-455 -188.5t-188.5 -455zM606 283v839q78 41 199 41 q113 0 193.5 -63.5t80.5 -175.5q0 -106 -67.5 -168t-177.5 -68l301 -405h-109l-293 401h-35l-2 -401h-90zM696 754h78q94 0 152.5 41t58.5 129t-59.5 127t-130.5 39q-51 0 -99 -19v-317z" />
<glyph unicode="&#xaf;" horiz-adv-x="342" d="M-72 1278v113h486v-113h-486z" />
<glyph unicode="&#xb0;" horiz-adv-x="827" d="M111 1126q0 127 88 215.5t215 88.5t215 -88.5t88 -215.5t-88 -215t-215 -88t-215 88t-88 215zM221 1126.5q0 -79.5 56.5 -136t136.5 -56.5t136 56.5t56 136t-56 136t-136 56.5t-136.5 -56.5t-56.5 -136z" />
<glyph unicode="&#xb1;" d="M121 137v123h680v-123h-680zM121 745v123h276v357h123v-357h281v-123h-279v-356h-123v356h-278z" />
<glyph unicode="&#xb2;" horiz-adv-x="641" d="M68 553l282 444q66 100 66 183q0 63 -37 103t-109 40q-68 0 -125 -37l-41 84q86 53 199 53q109 0 175.5 -63.5t66.5 -169.5q0 -94 -94 -236l-199 -292h297v-109h-481z" />
<glyph unicode="&#xb3;" horiz-adv-x="641" d="M80 592l41 90q51 -41 147 -41q68 0 111 47t43 117q0 80 -56.5 128t-156.5 48v78q88 4 139 43t51 102q0 49 -33.5 83t-91.5 34q-70 0 -122 -35l-41 80q78 55 190 55q100 0 160.5 -58t60.5 -144q0 -123 -112 -183q139 -68 139 -229q0 -111 -76 -189.5t-184 -78.5 q-135 0 -209 53z" />
<glyph unicode="&#xb4;" horiz-adv-x="342" d="M80 1225l110 272q45 35 102.5 36t67.5 -34l-196 -274h-84z" />
<glyph unicode="&#xb5;" horiz-adv-x="935" d="M125 -440v1544h170v-940q82 -55 174 -55q100 0 172 43v952h170v-1034q-127 -86 -311 -86q-92 0 -205 63v-487h-170z" />
<glyph unicode="&#xb6;" d="M39 1008q0 197 111.5 299t283.5 102h416v-96h-55v-1753h-103v1753h-256v-1753h-102v1073q-137 25 -216 121t-79 254z" />
<glyph unicode="&#xb7;" horiz-adv-x="434" d="M96 688q0 49 36 85t83 36q51 0 86 -36t35 -85q0 -51 -35 -86t-84 -35t-85 35t-36 86z" />
<glyph unicode="&#xb8;" horiz-adv-x="342" d="M-25 -358l33 65q92 -10 163 11.5t71 60.5q0 66 -168 55l32 64q262 20 263 -115q0 -86 -117 -126t-277 -15z" />
<glyph unicode="&#xb9;" horiz-adv-x="641" d="M119 1276q86 12 152.5 50t90.5 83h87v-858h-123v692q-76 -31 -195 -37z" />
<glyph unicode="&#xba;" horiz-adv-x="630" d="M61 1079.5q0 153.5 63.5 248.5t190.5 95q129 0 191.5 -95t62.5 -248.5t-62.5 -248t-191.5 -94.5t-191.5 94.5t-62.5 248zM178 1081q0 -262 137.5 -262t137.5 262q0 268 -137.5 268t-137.5 -268z" />
<glyph unicode="&#xbb;" horiz-adv-x="940" d="M147 328l220 356l-220 356l86 76q154 -236 269 -432q-115 -197 -269 -432zM461 328l219 356l-219 356l88 76q68 -111 268 -432q-201 -322 -268 -432z" />
<glyph unicode="&#xbc;" horiz-adv-x="1406" d="M80 1276q86 12 152.5 50t91.5 83h86v-858h-123v692q-76 -31 -195 -37zM383 23l578 1411l112 -48l-579 -1409zM848 188v88l307 582h111v-582h61v-88h-61v-188h-117v188h-301zM942 276h205v330l6 78h-4q-14 -43 -33 -78q-168 -318 -174 -330z" />
<glyph unicode="&#xbd;" horiz-adv-x="1406" d="M80 1276q86 12 152.5 50t91.5 83h86v-858h-123v692q-76 -31 -195 -37zM326 23l577 1411l113 -48l-578 -1409zM846 0l282 442q66 100 66 185q0 63 -38 102t-109 39q-68 0 -125 -35l-39 84q82 53 196 53q109 0 175.5 -64.5t66.5 -170.5q0 -96 -94 -234l-199 -295h299v-106 h-481z" />
<glyph unicode="&#xbe;" horiz-adv-x="1406" d="M80 592l39 90q55 -41 149 -41q68 0 111 47t43 117q0 80 -56.5 128t-156.5 48v78q88 4 139 43t51 102q0 49 -33.5 83t-91.5 34q-70 0 -122 -35l-41 80q78 55 190 55q100 0 160.5 -58t60.5 -144q0 -123 -114 -183q139 -66 139 -229q0 -111 -75 -189.5t-183 -78.5 q-135 0 -209 53zM422 23l577 1411l113 -48l-577 -1409zM848 188v88l307 582h111v-582h61v-88h-61v-188h-117v188h-301zM942 276h205v330l6 78h-4q-14 -43 -33 -78q-168 -318 -174 -330z" />
<glyph unicode="&#xbf;" horiz-adv-x="788" d="M104 -129q0 123 77 206t169 120l17 315h129l20 -375q-98 -25 -165.5 -89t-67.5 -167q0 -84 47 -139t139 -55q113 0 188 51l56 -117q-98 -80 -275 -80q-156 0 -245 89t-89 241zM313 866q0 49 35 85t84 36t84 -36t35 -85q0 -51 -35 -86t-84 -35t-84 35t-35 86z" />
<glyph unicode="&#xc0;" horiz-adv-x="1021" d="M31 0l405 1409h154l399 -1409h-184l-107 412h-393l-108 -412h-166zM279 1788q8 35 65 35t105 -35l112 -275h-86zM338 539h330l-117 462l-45 197h-2q-20 -98 -45 -197z" />
<glyph unicode="&#xc1;" horiz-adv-x="1021" d="M31 0l405 1409h154l399 -1409h-184l-107 412h-393l-108 -412h-166zM338 539h330l-117 462l-45 197h-2q-20 -98 -45 -197zM467 1511l108 273q47 35 103.5 36t66.5 -34l-194 -275h-84z" />
<glyph unicode="&#xc2;" horiz-adv-x="1021" d="M31 0l405 1409h154l399 -1409h-184l-107 412h-393l-108 -412h-166zM285 1546l170 205q25 31 57 31q31 0 57 -31l170 -205l-41 -43l-186 152l-184 -152zM338 539h330l-117 462l-45 197h-2q-20 -98 -45 -197z" />
<glyph unicode="&#xc3;" horiz-adv-x="1021" d="M31 0l405 1409h154l399 -1409h-184l-107 412h-393l-108 -412h-166zM270 1602q29 100 119 112q51 6 122 -37t110 -37q70 12 94 89l59 -91q-25 -92 -123 -108q-47 -8 -118.5 36t-112.5 38q-63 -10 -94 -88zM338 539h330l-117 462l-45 197h-2q-20 -98 -45 -197z" />
<glyph unicode="&#xc4;" horiz-adv-x="1021" d="M31 0l405 1409h154l399 -1409h-184l-107 412h-393l-108 -412h-166zM274 1618q0 37 26 62.5t60 25.5q39 0 65 -25.5t26 -62.5t-26 -63.5t-65 -26.5q-35 0 -60.5 26.5t-25.5 63.5zM338 539h330l-117 462l-45 197h-2q-20 -98 -45 -197zM575 1618q0 37 26 62.5t62.5 25.5 t62.5 -25.5t26 -62.5t-26 -63.5t-62.5 -26.5t-62.5 26.5t-26 63.5z" />
<glyph unicode="&#xc5;" horiz-adv-x="1021" d="M31 0l405 1409h154l399 -1409h-184l-107 412h-393l-108 -412h-166zM338 537h330l-117 464l-45 197h-2q-20 -98 -45 -197zM350 1665q0 68 48 115t116 47q66 0 114 -47t48 -115q0 -66 -48 -114t-114 -48q-68 0 -116 48t-48 114zM414 1665q0 -41 29.5 -69.5t70.5 -28.5 t69.5 28.5t28.5 69.5t-28.5 70.5t-69.5 29.5t-70.5 -29.5t-29.5 -70.5z" />
<glyph unicode="&#xc6;" horiz-adv-x="1288" d="M0 0l506 1409h631v-147h-451l102 -463h349v-144h-318l109 -508h323v-147h-473l-80 410h-389l-139 -410h-170zM348 535h332l-92 485l-25 170h-6q-23 -88 -49 -168z" />
<glyph unicode="&#xc7;" horiz-adv-x="860" d="M106 705q0 197 51.5 358.5t157 264t246.5 102.5q152 0 244 -82l-43 -119q-72 55 -174 55q-150 0 -221.5 -167t-71.5 -412q0 -238 73.5 -405t217.5 -167q109 0 178 57l43 -129q-78 -82 -252 -81q-211 0 -330 204t-119 521zM313 -356l33 63q90 -10 162 12.5t72 59.5 q0 66 -168 57l30 62q262 20 263 -115q0 -84 -116 -124t-276 -15z" />
<glyph unicode="&#xc8;" horiz-adv-x="796" d="M143 0v1409h570v-141h-389v-471h350v-142h-350v-514h389v-141h-570zM211 1788q8 35 65.5 35t102.5 -35l115 -275h-86z" />
<glyph unicode="&#xc9;" horiz-adv-x="796" d="M143 0v1409h570v-141h-389v-471h350v-140h-350v-516h389v-141h-570zM334 1511l110 273q45 35 102.5 36t65.5 -34l-194 -275h-84z" />
<glyph unicode="&#xca;" horiz-adv-x="796" d="M143 0v1409h570v-141h-389v-471h350v-142h-350v-514h389v-141h-570zM190 1546l170 205q25 31 56 31q35 0 59 -31l170 -205l-43 -43l-186 152l-185 -152z" />
<glyph unicode="&#xcb;" horiz-adv-x="798" d="M145 0v1409h570v-141h-389v-471h350v-142h-350v-514h389v-141h-570zM190 1618q0 37 26 62.5t62.5 25.5t62.5 -25.5t26 -62.5t-26 -63.5t-62.5 -26.5t-62.5 26.5t-26 63.5zM494 1618q0 37 25.5 62.5t60.5 25.5q37 0 62.5 -25.5t25.5 -62.5t-26 -63.5t-62 -26.5 q-35 0 -60.5 26.5t-25.5 63.5z" />
<glyph unicode="&#xcc;" horiz-adv-x="479" d="M41 1788q8 35 65.5 35t104.5 -35l113 -275h-86zM170 0v1409h182v-1409h-182z" />
<glyph unicode="&#xcd;" horiz-adv-x="468" d="M143 0v1409h181v-1409h-181zM164 1511l110 273q47 35 103.5 36t66.5 -34l-194 -275h-86z" />
<glyph unicode="&#xce;" horiz-adv-x="477" d="M10 1546l172 205q25 31 56 31q33 0 57 -31l170 -205l-41 -43l-186 152l-185 -152zM147 0v1409h181v-1409h-181z" />
<glyph unicode="&#xcf;" horiz-adv-x="477" d="M0 1618q0 37 25.5 62.5t60.5 25.5q37 0 63.5 -25.5t26.5 -62.5t-26.5 -63.5t-63.5 -26.5q-35 0 -60.5 26.5t-25.5 63.5zM147 0v1409h181v-1409h-181zM301 1618q0 37 26.5 62.5t61.5 25.5q37 0 62.5 -25.5t25.5 -62.5t-25.5 -63.5t-62.5 -26.5q-35 0 -61.5 26.5 t-26.5 63.5z" />
<glyph unicode="&#xd0;" horiz-adv-x="1101" d="M74 698v123h102v527q117 82 322 82q242 0 369.5 -189.5t127.5 -521.5q0 -207 -46 -368t-158.5 -266t-282.5 -105q-221 0 -332 81v639zM356 150q41 -20 136 -21q143 0 231 137t88 455q0 573 -326 573q-90 0 -129 -18v-455h201v-121h-201v-550z" />
<glyph unicode="&#xd1;" horiz-adv-x="1136" d="M143 0v1409h185l460 -963l60 -135h4q-4 74 -4 142v956h149v-1409h-153l-494 1026l-59 137h-4q4 -74 4 -135v-1028h-148zM309 1602q33 102 119 112q53 8 124 -36t107 -38q76 12 95 89l61 -91q-27 -92 -123 -108q-47 -8 -118.5 36t-112.5 38q-63 -8 -94 -88z" />
<glyph unicode="&#xd2;" horiz-adv-x="1093" d="M106 704.5q0 206.5 42 364.5t144.5 259.5t254 101.5t254 -101.5t144.5 -259.5t42 -364.5t-42 -364.5t-144.5 -259t-254 -101t-254 101t-144.5 259t-42 364.5zM291 709q0 -575 256 -575.5t256 575.5q0 117 -12.5 213t-39 182t-78.5 135t-126 49t-126 -49t-79 -135 t-39 -182t-12 -213zM328 1788q8 35 65.5 35t104.5 -35l112 -275h-86z" />
<glyph unicode="&#xd3;" horiz-adv-x="1093" d="M106 704.5q0 206.5 42 364.5t144.5 259.5t254 101.5t254 -101.5t144.5 -259.5t42 -364.5t-42 -364.5t-144.5 -259t-254 -101t-254 101t-144.5 259t-42 364.5zM291 709q0 -575 256 -575.5t256 575.5q0 117 -12.5 213t-39 182t-78.5 135t-126 49t-126 -49t-79 -135 t-39 -182t-12 -213zM477 1511l113 273q45 35 101.5 36t66.5 -34l-195 -275h-86z" />
<glyph unicode="&#xd4;" horiz-adv-x="1093" d="M106 704.5q0 206.5 42 364.5t144.5 259.5t254 101.5t254 -101.5t144.5 -259.5t42 -364.5t-42 -364.5t-144.5 -259t-254 -101t-254 101t-144.5 259t-42 364.5zM291 709q0 -575 256 -575.5t256 575.5q0 117 -12.5 213t-39 182t-78.5 135t-126 49t-126 -49t-79 -135 t-39 -182t-12 -213zM317 1546l172 205q25 31 58 31q35 0 55 -31l172 -205l-43 -43l-184 152l-185 -152z" />
<glyph unicode="&#xd5;" horiz-adv-x="1093" d="M106 704.5q0 206.5 42 364.5t144.5 259.5t254 101.5t254 -101.5t144.5 -259.5t42 -364.5t-42 -364.5t-144.5 -259t-254 -101t-254 101t-144.5 259t-42 364.5zM291 709q0 -575 256 -575.5t256 575.5q0 117 -12.5 213t-39 182t-78.5 135t-126 49t-126 -49t-79 -135 t-39 -182t-12 -213zM293 1602q33 102 119 112q53 8 123.5 -36t107.5 -38q76 12 94 89l62 -91q-27 -92 -123 -108q-47 -8 -119 36t-113 38q-63 -8 -94 -88z" />
<glyph unicode="&#xd6;" horiz-adv-x="1093" d="M106 704.5q0 206.5 42 364.5t144.5 259.5t254 101.5t254 -101.5t144.5 -259.5t42 -364.5t-42 -364.5t-144.5 -259t-254 -101t-254 101t-144.5 259t-42 364.5zM291 709q0 -575 256 -575.5t256 575.5q0 117 -12.5 213t-39 182t-78.5 135t-126 49t-126 -49t-79 -135 t-39 -182t-12 -213zM309 1618q0 37 25.5 62.5t60.5 25.5q37 0 62.5 -25.5t25.5 -62.5t-25.5 -63.5t-62.5 -26.5q-35 0 -60.5 26.5t-25.5 63.5zM610 1618q0 37 26 62.5t60 25.5q39 0 64.5 -25.5t25.5 -62.5t-25.5 -63.5t-64.5 -26.5q-35 0 -60.5 26.5t-25.5 63.5z" />
<glyph unicode="&#xd7;" d="M121 223v121h680v-121h-680zM121 487v136l561 211l-561 215v133l680 -287v-123z" />
<glyph unicode="&#xd8;" horiz-adv-x="1161" d="M113 705q0 315 118.5 520t350.5 205q166 0 288 -123l119 223l60 -33l-134 -246q135 -205 136 -546q0 -203 -48.5 -363t-157 -261t-263.5 -101q-168 0 -287 120l-123 -229l-57 33l135 250q-137 203 -137 551zM279 711q0 -229 63 -387l453 843q-80 143 -213 144 q-88 0 -151.5 -56.5t-94.5 -151.5t-44 -190.5t-13 -201.5zM373 242q80 -129 207 -129q88 0 151.5 56t94 150.5t44 189.5t13.5 202q0 217 -60 374z" />
<glyph unicode="&#xd9;" horiz-adv-x="1046" d="M143 393v1016h181v-1040q0 -104 57 -168t149.5 -64t150.5 63.5t58 168.5v1040h164v-1018q0 -190 -106.5 -302t-274.5 -112q-166 0 -272.5 113t-106.5 303zM324 1788q8 35 65 35t103 -35l114 -275h-86z" />
<glyph unicode="&#xda;" horiz-adv-x="1046" d="M143 393v1016h181v-1040q0 -104 57 -168t149.5 -64t150.5 63.5t58 168.5v1040h164v-1018q0 -190 -106.5 -302t-274.5 -112q-166 0 -272.5 113t-106.5 303zM440 1511l113 273q45 35 102.5 36t65.5 -34l-195 -275h-86z" />
<glyph unicode="&#xdb;" horiz-adv-x="1046" d="M143 393v1016h181v-1040q0 -104 57 -168t149.5 -64t150.5 63.5t58 168.5v1040h164v-1018q0 -190 -106.5 -302t-274.5 -112q-166 0 -272.5 113t-106.5 303zM297 1546l172 205q25 31 55 31q33 0 58 -31l172 -205l-43 -43l-187 152l-184 -152z" />
<glyph unicode="&#xdc;" horiz-adv-x="1046" d="M143 393v1016h181v-1040q0 -104 57 -168t149.5 -64t150.5 63.5t58 168.5v1040h164v-1018q0 -190 -106.5 -302t-274.5 -112q-166 0 -272.5 113t-106.5 303zM291 1618q0 37 25.5 62.5t62.5 25.5t62.5 -25.5t25.5 -62.5t-25.5 -63.5t-62.5 -26.5t-62.5 26.5t-25.5 63.5z M594 1618q0 37 25.5 62.5t62.5 25.5q35 0 60.5 -25.5t25.5 -62.5t-25.5 -63.5t-60.5 -26.5q-37 0 -62.5 26.5t-25.5 63.5z" />
<glyph unicode="&#xdd;" horiz-adv-x="878" d="M23 1409h194l232 -610h2l233 610h172l-326 -778v-631h-182v631zM377 1511l108 273q47 35 103.5 36t66.5 -34l-194 -275h-84z" />
<glyph unicode="&#xde;" horiz-adv-x="931" d="M143 0v1409h181v-246q61 20 127 21q199 0 303 -119t104 -313q0 -201 -126 -315.5t-370 -100.5l-38 2v-338h-181zM324 467l38 -2q162 -8 239 69.5t77 206.5q0 150 -64.5 234t-175.5 84q-66 0 -114 -17v-575z" />
<glyph unicode="&#xdf;" horiz-adv-x="964" d="M131 0v1081q0 250 91 398.5t261 148.5q164 0 249 -129t85 -332q0 -117 -24 -194q-182 -23 -183 -178q0 -51 27 -92t100 -115q84 -82 116 -144.5t32 -154.5q0 -131 -86 -217t-217 -86q-123 0 -183 55l35 125q41 -37 129 -37q68 0 110 44t42 118q0 61 -24.5 105t-96.5 116 q-76 76 -108.5 136.5t-32.5 131.5q0 186 182 250q16 59 16 137q0 328 -168 328q-180 0 -180 -403v-1092h-172z" />
<glyph unicode="&#xe0;" horiz-adv-x="884" d="M86 311q0 106 40 183t114.5 122.5t159.5 70t198 38.5v53q0 215 -192 215q-119 0 -224 -65l-39 114q123 82 287 82q145 0 237.5 -86t92.5 -276v-701q-123 -82 -316 -81q-176 0 -267 88.5t-91 242.5zM248 313q0 -106 54 -161.5t155 -55.5q86 0 139 31l2 487 q-184 -29 -267 -92.5t-83 -208.5zM250 1501q8 35 65.5 35t104.5 -35l110 -274h-81z" />
<glyph unicode="&#xe1;" horiz-adv-x="884" d="M86 311q0 106 40 183t114.5 122.5t159.5 70t198 38.5v53q0 215 -192 215q-119 0 -224 -65l-39 114q123 82 287 82q145 0 237.5 -86t92.5 -276v-701q-123 -82 -316 -81q-176 0 -267 88.5t-91 242.5zM248 313q0 -106 54 -161.5t155 -55.5q86 0 139 31l2 487 q-184 -29 -267 -92.5t-83 -208.5zM393 1225l111 272q45 35 102.5 36t65.5 -34l-195 -274h-84z" />
<glyph unicode="&#xe2;" horiz-adv-x="884" d="M86 311q0 106 40 183t114.5 122.5t159.5 70t198 38.5v53q0 215 -192 215q-119 0 -224 -65l-39 114q123 82 287 82q145 0 237.5 -86t92.5 -276v-701q-123 -82 -316 -81q-176 0 -267 88.5t-91 242.5zM219 1260l172 204q25 31 55 31q33 0 58 -31l172 -204l-43 -43l-184 151 l-187 -151zM248 313q0 -106 54 -161.5t155 -55.5q86 0 139 31l2 487q-184 -29 -267 -92.5t-83 -208.5z" />
<glyph unicode="&#xe3;" horiz-adv-x="884" d="M86 311q0 106 40 183t114.5 122.5t159.5 70t198 38.5v53q0 215 -192 215q-119 0 -224 -65l-39 114q123 82 287 82q145 0 237.5 -86t92.5 -276v-701q-123 -82 -316 -81q-176 0 -267 88.5t-91 242.5zM195 1313q29 100 118 114q53 8 123 -36.5t109 -38.5q72 12 94 90l59 -90 q-25 -92 -123 -109q-47 -8 -118.5 36t-112.5 38q-66 -10 -92 -88zM248 313q0 -106 54 -161.5t155 -55.5q86 0 139 31l2 487q-184 -29 -267 -92.5t-83 -208.5z" />
<glyph unicode="&#xe4;" horiz-adv-x="884" d="M86 311q0 106 40 183t114.5 122.5t159.5 70t198 38.5v53q0 215 -192 215q-119 0 -224 -65l-39 114q123 82 287 82q145 0 237.5 -86t92.5 -276v-701q-123 -82 -316 -81q-176 0 -267 88.5t-91 242.5zM215 1333q0 35 25.5 61.5t62.5 26.5t62.5 -26.5t25.5 -61.5 q0 -37 -25.5 -63.5t-62.5 -26.5t-62.5 26.5t-25.5 63.5zM248 313q0 -106 54 -161.5t155 -55.5q86 0 139 31l2 487q-184 -29 -267 -92.5t-83 -208.5zM518 1333q0 35 25.5 61.5t60.5 26.5q37 0 62.5 -26.5t25.5 -61.5q0 -37 -25.5 -63.5t-62.5 -26.5q-35 0 -60.5 26.5 t-25.5 63.5z" />
<glyph unicode="&#xe5;" horiz-adv-x="884" d="M86 311q0 106 40 183t114.5 122.5t159.5 70t198 38.5v53q0 215 -192 215q-119 0 -224 -65l-39 114q123 82 287 82q145 0 237.5 -86t92.5 -276v-701q-123 -82 -316 -81q-176 0 -267 88.5t-91 242.5zM248 313q0 -106 54 -161.5t155 -55.5q84 0 141 31v487 q-184 -29 -267 -92.5t-83 -208.5zM293 1384q0 68 48 115t114 47q68 0 114.5 -47t46.5 -115q0 -66 -47 -113.5t-114 -47.5q-66 0 -114 47.5t-48 113.5zM354 1384q0 -41 30 -69.5t71 -28.5t69.5 28.5t28.5 69.5t-28.5 71t-69.5 30t-71 -30t-30 -71z" />
<glyph unicode="&#xe6;" horiz-adv-x="1411" d="M88 313q0 197 124 290t388 122v55q0 106 -56.5 159.5t-146.5 53.5q-115 0 -211 -67l-36 116q106 82 274 82q203 0 272 -172q88 172 269 172q174 0 267 -144t87 -425l-565 -70q8 -182 76.5 -274t187.5 -92q139 0 231 67l43 -125q-102 -82 -288 -81q-100 0 -184.5 49 t-123.5 131q-72 -180 -272 -180q-166 0 -251 88.5t-85 244.5zM248 317q0 -104 49 -159.5t135 -55.5q70 0 119 55.5t49 145.5v309q-195 -23 -273.5 -87.5t-78.5 -207.5zM745 600l404 51q-2 342 -193 342q-94 0 -152.5 -104.5t-58.5 -288.5z" />
<glyph unicode="&#xe7;" horiz-adv-x="735" d="M96 553q0 268 100.5 419.5t264.5 151.5q145 0 217 -82l-37 -110q-57 57 -149 57q-113 0 -167.5 -116.5t-54.5 -313.5t57.5 -315.5t159.5 -118.5q98 0 152 57l41 -121q-70 -82 -223 -81q-166 0 -263.5 151.5t-97.5 421.5zM203 -356l33 63q90 -10 161.5 12.5t71.5 59.5 q0 66 -168 57l33 62q260 20 260 -115q0 -84 -115.5 -124t-275.5 -15z" />
<glyph unicode="&#xe8;" horiz-adv-x="929" d="M96 555q0 270 104.5 419.5t276.5 149.5q178 0 272.5 -144t88.5 -425l-576 -70q8 -178 78 -271t190 -93q143 0 234 67l43 -127q-104 -82 -289 -81q-195 0 -308.5 145t-113.5 430zM256 600l408 53q-6 338 -191 338q-94 0 -155.5 -104.5t-61.5 -286.5zM260 1501 q8 35 65.5 35t102.5 -35l113 -274h-82z" />
<glyph unicode="&#xe9;" horiz-adv-x="929" d="M96 555q0 270 104.5 419.5t276.5 149.5q178 0 272.5 -144t88.5 -425l-576 -70q8 -178 78 -271t190 -93q143 0 234 67l43 -127q-104 -82 -289 -81q-195 0 -308.5 145t-113.5 430zM256 600l408 53q-6 338 -191 338q-94 0 -155.5 -104.5t-61.5 -286.5zM418 1225l108 272 q47 35 103.5 36t66.5 -34l-194 -274h-84z" />
<glyph unicode="&#xea;" horiz-adv-x="929" d="M96 555q0 270 104.5 419.5t276.5 149.5q178 0 272.5 -144t88.5 -425l-576 -70q8 -178 78 -271t190 -93q143 0 234 67l43 -127q-104 -82 -289 -81q-195 0 -308.5 145t-113.5 430zM250 1260l170 204q25 31 57.5 31t57.5 -31l170 -204l-41 -43l-185 151l-186 -151zM256 600 l408 53q-6 338 -191 338q-94 0 -155.5 -104.5t-61.5 -286.5z" />
<glyph unicode="&#xeb;" horiz-adv-x="929" d="M96 555q0 270 104.5 419.5t276.5 149.5q178 0 272.5 -144t88.5 -425l-576 -70q8 -178 78 -271t190 -93q143 0 234 67l43 -127q-104 -82 -289 -81q-195 0 -308.5 145t-113.5 430zM244 1333q0 35 25.5 61.5t62.5 26.5t62.5 -26.5t25.5 -61.5q0 -37 -25.5 -63.5t-62.5 -26.5 t-62.5 26.5t-25.5 63.5zM256 600l408 53q-6 338 -191 338q-94 0 -155.5 -104.5t-61.5 -286.5zM547 1333q0 37 24.5 62.5t61.5 25.5t62.5 -26.5t25.5 -61.5q0 -37 -25.5 -63.5t-62.5 -26.5t-61.5 26.5t-24.5 63.5z" />
<glyph unicode="&#xec;" horiz-adv-x="436" d="M25 1501q8 35 65 35t105 -35l110 -274h-82zM145 0v1104h168v-1104h-168z" />
<glyph unicode="&#xed;" horiz-adv-x="434" d="M131 0v1104h170v-1104h-170zM131 1225l111 272q45 35 101 36t67 -34l-195 -274h-84z" />
<glyph unicode="&#xee;" horiz-adv-x="440" d="M-6 1260l170 204q25 31 57.5 31t57.5 -31l170 -204l-41 -43l-187 151l-184 -151zM137 0v1104h168v-1104h-168z" />
<glyph unicode="&#xef;" horiz-adv-x="468" d="M-4 1333q0 35 25.5 61.5t62.5 26.5q35 0 61.5 -26.5t26.5 -61.5q0 -37 -26.5 -63.5t-61.5 -26.5q-37 0 -62.5 26.5t-25.5 63.5zM147 0v1104h170v-1104h-170zM297 1333q0 35 26.5 61.5t61.5 26.5q37 0 62.5 -26.5t25.5 -61.5q0 -37 -25.5 -63.5t-62.5 -26.5 q-35 0 -61.5 26.5t-26.5 63.5z" />
<glyph unicode="&#xf0;" horiz-adv-x="917" d="M90 547q0 150 32 272.5t117 210.5t212 88q59 0 108 -16q-51 154 -110 264l-154 -55q-29 59 -45 80l151 55q-39 68 -86 129l146 55q43 -55 86 -129l133 49q25 -33 47 -77l-135 -52q229 -432 229 -872q0 -262 -87 -418t-267 -156q-178 0 -277.5 152t-99.5 420zM262 549 q0 -436 203 -436q188 0 188 442q0 217 -63 430q-53 16 -115 16q-119 0 -166 -120.5t-47 -331.5z" />
<glyph unicode="&#xf1;" horiz-adv-x="935" d="M125 0v1040q137 84 352 84q334 0 334 -325v-799h-170v799q0 199 -182 198q-90 0 -164 -32v-965h-170zM207 1313q29 100 119 114q53 8 123.5 -36.5t107.5 -38.5q72 12 94 90l62 -90q-27 -92 -125 -109q-47 -8 -119 36t-113 38q-61 -8 -92 -88z" />
<glyph unicode="&#xf2;" horiz-adv-x="931" d="M96 551q0 258 91.5 415.5t277.5 157.5t277.5 -157.5t91.5 -415.5q0 -256 -91.5 -413.5t-275.5 -157.5q-186 0 -278.5 158.5t-92.5 412.5zM254 1501q8 35 65.5 35t102.5 -35l113 -274h-82zM268 553q0 -436 199 -436q197 0 197 436q0 449 -197 448q-199 1 -199 -448z" />
<glyph unicode="&#xf3;" horiz-adv-x="931" d="M96 551q0 258 91.5 415.5t277.5 157.5t277.5 -157.5t91.5 -415.5q0 -256 -91.5 -413.5t-275.5 -157.5q-186 0 -278.5 158.5t-92.5 412.5zM268 553q0 -436 199 -436q197 0 197 436q0 449 -197 448q-199 1 -199 -448zM401 1225l113 272q45 35 101.5 36t66.5 -34l-195 -274 h-86z" />
<glyph unicode="&#xf4;" horiz-adv-x="931" d="M96 551q0 258 91.5 415.5t277.5 157.5t277.5 -157.5t91.5 -415.5q0 -256 -91.5 -413.5t-275.5 -157.5q-186 0 -278.5 158.5t-92.5 412.5zM240 1260l170 204q25 31 57.5 31t56.5 -31l170 -204l-41 -43l-184 151l-186 -151zM268 553q0 -436 199 -436q197 0 197 436 q0 449 -197 448q-199 1 -199 -448z" />
<glyph unicode="&#xf5;" horiz-adv-x="931" d="M96 551q0 258 91.5 415.5t277.5 157.5t277.5 -157.5t91.5 -415.5q0 -256 -91.5 -413.5t-275.5 -157.5q-186 0 -278.5 158.5t-92.5 412.5zM209 1313q31 102 119 114q53 8 122.5 -36.5t108.5 -38.5q72 12 94 90l60 -90q-25 -92 -123 -109q-47 -8 -119 36t-113 38 q-63 -10 -94 -88zM268 553q0 -436 199 -436q197 0 197 436q0 449 -197 448q-199 1 -199 -448z" />
<glyph unicode="&#xf6;" horiz-adv-x="931" d="M96 551q0 258 91.5 415.5t277.5 157.5t277.5 -157.5t91.5 -415.5q0 -256 -91.5 -413.5t-275.5 -157.5q-186 0 -278.5 158.5t-92.5 412.5zM227 1333q0 37 26 63.5t60 26.5q37 0 63.5 -26.5t26.5 -63.5q0 -35 -26.5 -61.5t-63.5 -26.5q-35 0 -60.5 26.5t-25.5 61.5z M268 553q0 -436 199 -436q197 0 197 436q0 449 -197 448q-199 1 -199 -448zM530 1333q0 37 26 63.5t60 26.5q37 0 63 -26.5t26 -63.5q0 -35 -26 -61.5t-63 -26.5q-35 0 -60.5 26.5t-25.5 61.5z" />
<glyph unicode="&#xf7;" d="M121 631v106h680v-106h-680zM352 1010q0 45 32 75.5t77 30.5q43 0 74.5 -30.5t31.5 -75.5t-31.5 -76t-74.5 -31q-45 0 -77 31t-32 76zM354 360.5q0 45.5 32 77t75 31.5q45 0 76.5 -31.5t31.5 -77t-31.5 -76t-76.5 -30.5q-43 0 -75 30.5t-32 76z" />
<glyph unicode="&#xf8;" horiz-adv-x="942" d="M102 -111l111 217q-111 158 -111 445q0 256 92.5 414.5t276.5 158.5q125 0 219 -84l103 199l45 -25l-111 -217q113 -152 113 -446q0 -254 -91.5 -412.5t-277.5 -158.5q-125 0 -219 83l-102 -198zM250 553q0 -182 43 -299l334 672q-63 92 -156 92q-221 0 -221 -465z M319 190q59 -86 152 -86q221 0 221 449q0 195 -41 309z" />
<glyph unicode="&#xf9;" horiz-adv-x="925" d="M125 342v762h172v-782q0 -102 47 -155.5t131 -53.5q88 0 156 43v948h170v-1034q-127 -92 -336 -93q-340 0 -340 365zM256 1501q10 35 67.5 35t102.5 -35l111 -274h-82z" />
<glyph unicode="&#xfa;" horiz-adv-x="925" d="M125 342v762h172v-782q0 -102 47 -155.5t131 -53.5q88 0 156 43v948h170v-1034q-127 -92 -336 -93q-340 0 -340 365zM385 1225l111 272q47 35 103 36t67 -34l-195 -274h-86z" />
<glyph unicode="&#xfb;" horiz-adv-x="925" d="M125 342v762h172v-782q0 -102 47 -155.5t131 -53.5q88 0 156 43v948h170v-1034q-127 -92 -336 -93q-340 0 -340 365zM236 1260l172 204q25 31 55 31q33 0 57 -31l172 -204l-43 -43l-184 151l-186 -151z" />
<glyph unicode="&#xfc;" horiz-adv-x="925" d="M125 342v762h172v-782q0 -102 47 -155.5t131 -53.5q88 0 156 43v948h170v-1034q-127 -92 -336 -93q-340 0 -340 365zM225 1333q0 35 25.5 61.5t60.5 26.5q37 0 63.5 -26.5t26.5 -61.5q0 -37 -26.5 -63.5t-63.5 -26.5q-35 0 -60.5 26.5t-25.5 63.5zM528 1333q0 35 26 61.5 t60 26.5q37 0 62.5 -26.5t25.5 -61.5q0 -37 -25.5 -63.5t-62.5 -26.5q-35 0 -60.5 26.5t-25.5 63.5z" />
<glyph unicode="&#xfd;" horiz-adv-x="880" d="M59 1104h179l192 -877h6l228 877h161l-454 -1544h-174l159 440zM371 1225l112 272q45 35 102.5 36t65.5 -34l-194 -274h-86z" />
<glyph unicode="&#xfe;" horiz-adv-x="925" d="M121 -440v2048h168v-525q57 37 153 37q186 0 287.5 -147.5t101.5 -407.5q0 -270 -113.5 -424.5t-295.5 -154.5q-76 0 -131 20v-446h-170zM291 125q72 -16 98 -16q100 0 163.5 69.5t86.5 164.5t23 212q0 201 -59.5 322.5t-188.5 121.5q-74 0 -123 -32v-842z" />
<glyph unicode="&#xff;" horiz-adv-x="880" d="M59 1104h179l192 -877h6l228 877h161l-454 -1544h-174l159 440zM211 1329q0 37 25.5 62.5t60.5 25.5q37 0 62.5 -25.5t25.5 -62.5t-25.5 -62.5t-62.5 -25.5q-35 0 -60.5 25.5t-25.5 62.5zM512 1329q0 37 25.5 62.5t62.5 25.5t62.5 -25.5t25.5 -62.5t-25.5 -62.5 t-62.5 -25.5t-62.5 25.5t-25.5 62.5z" />
<glyph unicode="&#x152;" horiz-adv-x="1380" d="M106 704.5q0 204.5 49.5 363.5t161 260.5t273.5 101.5q94 0 147 -21h559v-147h-389v-463h350v-146h-350v-506h389v-147h-561q-53 -20 -145 -20q-162 0 -273.5 101t-161 260t-49.5 363.5zM293 706.5q0 -102.5 13 -194.5t44 -183t92.5 -145.5t149.5 -54.5q98 0 139 23v1105 q-49 35 -139 35q-88 0 -149.5 -55t-92.5 -148.5t-44 -186.5t-13 -195.5z" />
<glyph unicode="&#x153;" horiz-adv-x="1476" d="M96 551q0 256 92.5 414.5t272.5 158.5q193 0 282 -204q94 205 287 204q360 0 354 -569l-565 -70q14 -211 93 -290.5t175 -79.5q154 0 244 67l37 -121q-100 -82 -295 -81q-223 0 -328 215q-88 -215 -282 -215q-182 0 -274.5 158.5t-92.5 412.5zM268 553q0 -438 199 -438 t199 438q0 86 -6.5 152.5t-25 139.5t-61.5 112.5t-106 39.5q-199 0 -199 -444zM811 606l406 51q2 166 -49.5 255t-145.5 89t-152.5 -104.5t-58.5 -290.5z" />
<glyph unicode="&#x178;" horiz-adv-x="880" d="M23 1409h194l232 -610h4l233 610h170l-326 -778v-631h-180v631zM211 1618q0 37 25.5 62.5t60.5 25.5q37 0 62.5 -25.5t25.5 -62.5t-25.5 -63.5t-62.5 -26.5q-35 0 -60.5 26.5t-25.5 63.5zM512 1618q0 37 25.5 62.5t60.5 25.5q39 0 64.5 -25.5t25.5 -62.5t-25.5 -63.5 t-64.5 -26.5q-35 0 -60.5 26.5t-25.5 63.5z" />
<glyph unicode="&#x2c6;" horiz-adv-x="342" d="M-57 1260l172 204q25 31 55 31q33 0 57 -31l170 -204l-41 -43l-186 151l-184 -151z" />
<glyph unicode="&#x2dc;" horiz-adv-x="342" d="M-82 1313q29 100 119 114q53 8 123.5 -36.5t107.5 -38.5q70 12 97 90l59 -90q-27 -92 -123 -109q-47 -8 -119.5 36t-113.5 38q-61 -8 -93 -88z" />
<glyph unicode="&#x2000;" horiz-adv-x="913" />
<glyph unicode="&#x2001;" horiz-adv-x="1826" />
<glyph unicode="&#x2002;" horiz-adv-x="913" />
<glyph unicode="&#x2003;" horiz-adv-x="1826" />
<glyph unicode="&#x2004;" horiz-adv-x="608" />
<glyph unicode="&#x2005;" horiz-adv-x="456" />
<glyph unicode="&#x2006;" horiz-adv-x="303" />
<glyph unicode="&#x2007;" horiz-adv-x="303" />
<glyph unicode="&#x2008;" horiz-adv-x="227" />
<glyph unicode="&#x2009;" horiz-adv-x="364" />
<glyph unicode="&#x200a;" horiz-adv-x="100" />
<glyph unicode="&#x2010;" horiz-adv-x="606" d="M100 604v160h406v-160h-406z" />
<glyph unicode="&#x2011;" horiz-adv-x="606" d="M100 604v160h406v-160h-406z" />
<glyph unicode="&#x2012;" horiz-adv-x="606" d="M100 604v160h406v-160h-406z" />
<glyph unicode="&#x2013;" horiz-adv-x="681" d="M0 623v125h682v-123z" />
<glyph unicode="&#x2014;" horiz-adv-x="1361" d="M0 633v102h1362v-102h-1362z" />
<glyph unicode="&#x2018;" horiz-adv-x="516" d="M82 1096l254 512h102l-151 -508q-37 -70 -121 -70q-74 0 -84 66z" />
<glyph unicode="&#x2019;" horiz-adv-x="516" d="M78 1040l151 508q41 70 121 70q74 0 84 -66l-254 -512h-102z" />
<glyph unicode="&#x201a;" horiz-adv-x="516" d="M78 -348l151 510q39 68 121 67q74 0 84 -65l-254 -512h-102z" />
<glyph unicode="&#x201c;" horiz-adv-x="995" d="M147 1096l254 512h103l-152 -508q-37 -70 -121 -70q-74 0 -84 66zM496 1096l254 512h102l-152 -508q-37 -70 -120 -70q-74 0 -84 66z" />
<glyph unicode="&#x201d;" horiz-adv-x="995" d="M143 1038l152 510q39 68 121 68q74 0 84 -64l-254 -514h-103zM492 1038l151 510q39 68 121 68q74 0 84 -64l-254 -514h-102z" />
<glyph unicode="&#x201e;" horiz-adv-x="995" d="M143 -348l152 510q39 68 121 67q74 0 84 -65l-254 -512h-103zM492 -348l151 510q39 68 121 67q74 0 84 -65l-254 -512h-102z" />
<glyph unicode="&#x2022;" horiz-adv-x="714" d="M133 725q0 92 65.5 157.5t159.5 65.5q90 0 156 -65.5t66 -157.5t-65.5 -157.5t-156.5 -65.5q-94 0 -159.5 65.5t-65.5 157.5z" />
<glyph unicode="&#x2026;" horiz-adv-x="1708" d="M166 104q0 51 35 87t84 36q51 0 84.5 -34.5t33.5 -88.5q0 -49 -34.5 -84.5t-83.5 -35.5t-84 35.5t-35 84.5zM735 104q0 51 35 87t84 36q51 0 85 -34.5t34 -88.5q0 -49 -35 -84.5t-84 -35.5t-84 35.5t-35 84.5zM1305 104q0 51 34.5 87t83.5 36q51 0 85 -34.5t34 -88.5 q0 -49 -34.5 -84.5t-84 -35.5t-84 35.5t-34.5 84.5z" />
<glyph unicode="&#x202f;" horiz-adv-x="364" />
<glyph unicode="&#x2039;" horiz-adv-x="526" d="M74 684q16 25 135 216.5t135 215.5l84 -76l-215 -356l215 -356l-84 -76q-6 10 -270 432z" />
<glyph unicode="&#x203a;" horiz-adv-x="526" d="M98 328l219 356l-219 356l86 76q154 -236 269 -432q-115 -197 -269 -432z" />
<glyph unicode="&#x205f;" horiz-adv-x="456" />
<glyph unicode="&#x2122;" horiz-adv-x="1384" d="M90 1329v80h424v-80h-164v-602h-92v602h-168zM551 727l78 682h125l143 -567l141 567h127l78 -682h-90l-59 596l-156 -596h-86l-156 596l-57 -596h-88z" />
<glyph unicode="&#xe000;" horiz-adv-x="1105" d="M0 1105h1105v-1105h-1105v1105z" />
<glyph unicode="&#xfb01;" horiz-adv-x="948" d="M80 981v123h98v147q0 172 88 266.5t246 90.5v-129q-74 0 -120 -48.5t-46 -156.5v-170h166v-123h-166v-981h-168v981h-98zM629 1419q0 43 29.5 72t70.5 29t70.5 -29t29.5 -72q0 -41 -29.5 -70.5t-70.5 -29.5t-70.5 29.5t-29.5 70.5zM643 0v1104h170v-1104h-170z" />
<glyph unicode="&#xfb02;" horiz-adv-x="950" d="M80 981v123h98v147q0 172 88 266.5t246 90.5v-129q-74 0 -120 -48.5t-46 -156.5v-170h166v-123h-166v-981h-168v981h-98zM643 0v1608h170v-1608h-170z" />
<glyph unicode="&#xfb03;" horiz-adv-x="1566" d="M1245 1419q0 43 29.5 72t70.5 29t70.5 -29t29.5 -72q0 -41 -29.5 -70.5t-70.5 -29.5t-70.5 29.5t-29.5 70.5zM1259 0v1104h172v-1104h-172zM643 981v123h98v147q0 172 88 267q84 90 233 90h13v-129q-74 0 -120 -48.5t-46 -156.5v-170h166v-123h-166v-981h-168v981h-98z M80 981v123h98v147q0 172 88 267q84 90 233 90h13v-129q-74 0 -120 -48.5t-46 -156.5v-170h166v-123h-166v-981h-168v981h-98z" />
<glyph unicode="&#xfb04;" horiz-adv-x="1570" d="M1263 0v1608h170v-1608h-170zM643 981v123h98v147q0 172 88 267q84 90 233 90h13v-129q-74 0 -120 -48.5t-46 -156.5v-170h166v-123h-166v-981h-168v981h-98zM80 981v123h98v147q0 172 88 267q84 90 233 90h13v-129q-74 0 -120 -48.5t-46 -156.5v-170h166v-123h-166v-981 h-168v981h-98z" />
</font>
</defs>
</svg>
